<?xml version="1.0" encoding="UTF-8"?>
<svg version="1.1" xmlns="http://www.w3.org/2000/svg" width="256" height="394">
<path d="M0 0 C1.98 0 3.96 0 6 0 C6 0.66 6 1.32 6 2 C6.99 2 7.98 2 9 2 C9 2.66 9 3.32 9 4 C10.32 4 11.64 4 13 4 C13 4.66 13 5.32 13 6 C14.98 6.66 16.96 7.32 19 8 C19 8.66 19 9.32 19 10 C20.32 10 21.64 10 23 10 C23 10.66 23 11.32 23 12 C24.98 12.66 26.96 13.32 29 14 C29 14.66 29 15.32 29 16 C30.32 16 31.64 16 33 16 C33 16.66 33 17.32 33 18 C33.99 18 34.98 18 36 18 C36 18.66 36 19.32 36 20 C36.99 20 37.98 20 39 20 C39 20.66 39 21.32 39 22 C40.65 22 42.3 22 44 22 C44 22.66 44 23.32 44 24 C44.99 24 45.98 24 47 24 C47 24.66 47 25.32 47 26 C47.99 26 48.98 26 50 26 C50 26.66 50 27.32 50 28 C50.598125 28.144375 51.19625 28.28875 51.8125 28.4375 C53.56150404 28.8872439 55.28677023 29.42892341 57 30 C57 30.66 57 31.32 57 32 C58.32 32 59.64 32 61 32 C61 32.66 61 33.32 61 34 C61.99 34 62.98 34 64 34 C64 34.66 64 35.32 64 36 C64.5775 36.144375 65.155 36.28875 65.75 36.4375 C68.875 37.21875 68.875 37.21875 72 38 C72 38.66 72 39.32 72 40 C72.66 40 73.32 40 74 40 C74 40.66 74 41.32 74 42 C75.32 42 76.64 42 78 42 C78 42.66 78 43.32 78 44 C78.99 44 79.98 44 81 44 C81 44.66 81 45.32 81 46 C82.32 46 83.64 46 85 46 C85 46.66 85 47.32 85 48 C85.99 48 86.98 48 88 48 C88 48.66 88 49.32 88 50 C89.32 50 90.64 50 92 50 C92 50.66 92 51.32 92 52 C92.99 52 93.98 52 95 52 C95 52.66 95 53.32 95 54 C95.99 54 96.98 54 98 54 C98 54.66 98 55.32 98 56 C99.32 56 100.64 56 102 56 C102 56.66 102 57.32 102 58 C102.99 58 103.98 58 105 58 C105 58.66 105 59.32 105 60 C106.32 60 107.64 60 109 60 C109 60.66 109 61.32 109 62 C110.32 62 111.64 62 113 62 C113 62.66 113 63.32 113 64 C113.99 64 114.98 64 116 64 C116 64.66 116 65.32 116 66 C116.99 66 117.98 66 119 66 C119 66.66 119 67.32 119 68 C120.65 68 122.3 68 124 68 C124 68.66 124 69.32 124 70 C124.66 70 125.32 70 126 70 C126 70.66 126 71.32 126 72 C126.99 72 127.98 72 129 72 C130.27766915 74.55533829 130.1258641 76.34952663 130.12698364 79.21136475 C130.12980347 80.31611145 130.13262329 81.42085815 130.13552856 82.55908203 C130.13249222 84.38560303 130.13249222 84.38560303 130.12939453 86.24902344 C130.13202301 88.16621185 130.13202301 88.16621185 130.13470459 90.12213135 C130.13927414 93.63471004 130.13749084 97.14725945 130.1343255 100.65983868 C130.13179728 104.33525866 130.13414094 108.01067611 130.13571167 111.68609619 C130.13753292 117.86332652 130.13512916 124.04054492 130.13037109 130.21777344 C130.12493818 137.35338926 130.12668423 144.48897647 130.1321975 151.62459159 C130.13674137 157.75121675 130.13737264 163.87783332 130.13475883 170.00445962 C130.13320184 173.66327397 130.13298628 177.32207489 130.13629532 180.98088837 C130.13973064 185.06507549 130.13496344 189.14921367 130.12939453 193.23339844 C130.13141876 194.44298218 130.13344299 195.65256592 130.13552856 196.89880371 C130.13270874 198.01482971 130.12988892 199.13085571 130.12698364 200.28070068 C130.1264181 201.72862818 130.1264181 201.72862818 130.12584114 203.20580673 C129.99089721 206.20211965 129.5486389 209.05362772 129 212 C127.68 212 126.36 212 125 212 C125 211.34 125 210.68 125 210 C124.01 210 123.02 210 122 210 C122 209.34 122 208.68 122 208 C120.68 208 119.36 208 118 208 C118 207.34 118 206.68 118 206 C117.01 206 116.02 206 115 206 C115 205.34 115 204.68 115 204 C113.68 204 112.36 204 111 204 C111 203.34 111 202.68 111 202 C110.401875 201.855625 109.80375 201.71125 109.1875 201.5625 C107.43849596 201.1127561 105.71322977 200.57107659 104 200 C104 199.34 104 198.68 104 198 C103.401875 197.855625 102.80375 197.71125 102.1875 197.5625 C100.43849596 197.1127561 98.71322977 196.57107659 97 196 C97 195.34 97 194.68 97 194 C95.68 194 94.36 194 93 194 C92.20799156 191.2117188 91.88360832 188.76924943 91.91770935 185.87445068 C91.92474884 185.06119324 91.93178833 184.24793579 91.93904114 183.41003418 C91.95198715 182.52674438 91.96493317 181.64345459 91.97827148 180.73339844 C91.98787903 179.79647156 91.99748657 178.85954468 92.00738525 177.89422607 C92.04035047 174.79919868 92.08069239 171.70431352 92.12109375 168.609375 C92.14539728 166.4627533 92.16924072 164.31612635 92.19264221 162.16949463 C92.25545993 156.52073174 92.32453323 150.87206193 92.39489746 145.22338867 C92.46560172 139.45886472 92.53040618 133.69427479 92.59570312 127.9296875 C92.72468569 116.61971917 92.86027517 105.30984037 93 94 C92.01 94 91.02 94 90 94 C90 93.34 90 92.68 90 92 C89.01 92 88.02 92 87 92 C87 91.34 87 90.68 87 90 C86.01 90 85.02 90 84 90 C84 89.34 84 88.68 84 88 C83.401875 87.855625 82.80375 87.71125 82.1875 87.5625 C80.43849596 87.1127561 78.71322977 86.57107659 77 86 C77 85.34 77 84.68 77 84 C75.68 84 74.36 84 73 84 C73 83.34 73 82.68 73 82 C72.01 82 71.02 82 70 82 C70 81.34 70 80.68 70 80 C69.01 80 68.02 80 67 80 C67 79.34 67 78.68 67 78 C65.68 78 64.36 78 63 78 C63 77.34 63 76.68 63 76 C61.68 76 60.36 76 59 76 C59 75.34 59 74.68 59 74 C57.35 74 55.7 74 54 74 C54 73.34 54 72.68 54 72 C53.34 72 52.68 72 52 72 C52 71.34 52 70.68 52 70 C51.01 70 50.02 70 49 70 C49 69.34 49 68.68 49 68 C48.401875 67.855625 47.80375 67.71125 47.1875 67.5625 C45.43849596 67.1127561 43.71322977 66.57107659 42 66 C42 65.34 42 64.68 42 64 C40.68 64 39.36 64 38 64 C38 63.34 38 62.68 38 62 C37.01 62 36.02 62 35 62 C35 61.34 35 60.68 35 60 C33.68 60 32.36 60 31 60 C31 59.34 31 58.68 31 58 C30.01 58 29.02 58 28 58 C28 57.34 28 56.68 28 56 C27.01 56 26.02 56 25 56 C25 55.34 25 54.68 25 54 C23.68 54 22.36 54 21 54 C21 53.34 21 52.68 21 52 C20.01 52 19.02 52 18 52 C18 51.34 18 50.68 18 50 C16.68 50 15.36 50 14 50 C14 49.34 14 48.68 14 48 C13.01 48 12.02 48 11 48 C11 47.34 11 46.68 11 46 C9.68 46 8.36 46 7 46 C7 45.34 7 44.68 7 44 C6.01 44 5.02 44 4 44 C4 43.34 4 42.68 4 42 C3.34 42 2.68 42 2 42 C2 42.66 2 43.32 2 44 C0.68 44 -0.64 44 -2 44 C-2 44.66 -2 45.32 -2 46 C-2.99 46 -3.98 46 -5 46 C-5 46.66 -5 47.32 -5 48 C-6.32 48 -7.64 48 -9 48 C-9 48.66 -9 49.32 -9 50 C-9.99 50 -10.98 50 -12 50 C-12 50.66 -12 51.32 -12 52 C-12.99 52 -13.98 52 -15 52 C-15 52.66 -15 53.32 -15 54 C-16.32 54 -17.64 54 -19 54 C-19 54.66 -19 55.32 -19 56 C-20.32 56 -21.64 56 -23 56 C-23 56.66 -23 57.32 -23 58 C-23.99 58 -24.98 58 -26 58 C-26 58.66 -26 59.32 -26 60 C-26.99 60 -27.98 60 -29 60 C-29 60.66 -29 61.32 -29 62 C-30.32 62 -31.64 62 -33 62 C-33 62.66 -33 63.32 -33 64 C-33.99 64 -34.98 64 -36 64 C-36 64.66 -36 65.32 -36 66 C-37.32 66 -38.64 66 -40 66 C-40 66.66 -40 67.32 -40 68 C-40.99 68 -41.98 68 -43 68 C-43 68.66 -43 69.32 -43 70 C-44.32 70 -45.64 70 -47 70 C-47 70.66 -47 71.32 -47 72 C-47.99 72 -48.98 72 -50 72 C-50 72.66 -50 73.32 -50 74 C-50.99 74 -51.98 74 -53 74 C-53 74.66 -53 75.32 -53 76 C-53.99 76 -54.98 76 -56 76 C-56 76.66 -56 77.32 -56 78 C-58.90600261 79.25664978 -60.79604584 80 -64 80 C-64 80.66 -64 81.32 -64 82 C-64.99 82 -65.98 82 -67 82 C-67 82.66 -67 83.32 -67 84 C-68.32 84 -69.64 84 -71 84 C-71 84.66 -71 85.32 -71 86 C-71.99 86 -72.98 86 -74 86 C-74 86.66 -74 87.32 -74 88 C-75.32 88 -76.64 88 -78 88 C-78 88.66 -78 89.32 -78 90 C-78.99 90 -79.98 90 -81 90 C-81 90.66 -81 91.32 -81 92 C-81.99 92 -82.98 92 -84 92 C-84 92.66 -84 93.32 -84 94 C-84.99 94 -85.98 94 -87 94 C-86.67 104.56 -86.34 115.12 -86 126 C-84.68 126 -83.36 126 -82 126 C-82 126.66 -82 127.32 -82 128 C-81.01 128 -80.02 128 -79 128 C-79 128.66 -79 129.32 -79 130 C-77.68 130 -76.36 130 -75 130 C-75 130.66 -75 131.32 -75 132 C-74.01 132 -73.02 132 -72 132 C-72 132.66 -72 133.32 -72 134 C-70.68 134 -69.36 134 -68 134 C-68.00523682 133.16227051 -68.01047363 132.32454102 -68.01586914 131.46142578 C-68.03290014 128.35661064 -68.04544482 125.25181929 -68.05493164 122.14697266 C-68.06244036 120.14093449 -68.0751447 118.13491798 -68.08789062 116.12890625 C-68.09111328 114.87207031 -68.09433594 113.61523438 -68.09765625 112.3203125 C-68.10289307 111.15773926 -68.10812988 109.99516602 -68.11352539 108.79736328 C-68 106 -68 106 -67 104 C-66.01 104 -65.02 104 -64 104 C-64 103.34 -64 102.68 -64 102 C-62.68 102 -61.36 102 -60 102 C-60 101.34 -60 100.68 -60 100 C-59.01 100 -58.02 100 -57 100 C-57 99.34 -57 98.68 -57 98 C-55.68 98 -54.36 98 -53 98 C-53 97.34 -53 96.68 -53 96 C-52.01 96 -51.02 96 -50 96 C-50 95.34 -50 94.68 -50 94 C-48.68 94 -47.36 94 -46 94 C-46 93.34 -46 92.68 -46 92 C-45.01 92 -44.02 92 -43 92 C-43 91.34 -43 90.68 -43 90 C-41.68 90 -40.36 90 -39 90 C-39 89.34 -39 88.68 -39 88 C-37.68 88 -36.36 88 -35 88 C-35 87.34 -35 86.68 -35 86 C-34.01 86 -33.02 86 -32 86 C-32 85.34 -32 84.68 -32 84 C-31.01 84 -30.02 84 -29 84 C-29 83.34 -29 82.68 -29 82 C-28.01 82 -27.02 82 -26 82 C-25.505 80.02 -25.505 80.02 -25 78 C-23.02 78 -21.04 78 -19 78 C-19 77.34 -19 76.68 -19 76 C-17.68 76 -16.36 76 -15 76 C-15 75.34 -15 74.68 -15 74 C-14.01 74 -13.02 74 -12 74 C-12 73.34 -12 72.68 -12 72 C-11.01 72 -10.02 72 -9 72 C-9 71.34 -9 70.68 -9 70 C-7.68 70 -6.36 70 -5 70 C-5 69.34 -5 68.68 -5 68 C-3.68 68 -2.36 68 -1 68 C-1 67.34 -1 66.68 -1 66 C1.64 66 4.28 66 7 66 C7 66.66 7 67.32 7 68 C7.99 68 8.98 68 10 68 C10 68.66 10 69.32 10 70 C11.32 70 12.64 70 14 70 C14 70.66 14 71.32 14 72 C14.99 72 15.98 72 17 72 C17 72.66 17 73.32 17 74 C18.32 74 19.64 74 21 74 C21 74.66 21 75.32 21 76 C21.99 76 22.98 76 24 76 C24 76.66 24 77.32 24 78 C25.65 78 27.3 78 29 78 C29 78.66 29 79.32 29 80 C29.66 80 30.32 80 31 80 C31 80.66 31 81.32 31 82 C31.99 82 32.98 82 34 82 C34 82.66 34 83.32 34 84 C34.99 84 35.98 84 37 84 C37 84.66 37 85.32 37 86 C38.32 86 39.64 86 41 86 C41 86.66 41 87.32 41 88 C42.32 88 43.64 88 45 88 C45 88.66 45 89.32 45 90 C46.32 90 47.64 90 49 90 C49 90.66 49 91.32 49 92 C49.99 92 50.98 92 52 92 C52 92.66 52 93.32 52 94 C52.86625 94.2165625 52.86625 94.2165625 53.75 94.4375 C55.83333333 94.95833333 57.91666667 95.47916667 60 96 C60 96.66 60 97.32 60 98 C60.66 98 61.32 98 62 98 C62 98.66 62 99.32 62 100 C63.32 100 64.64 100 66 100 C66 100.66 66 101.32 66 102 C67.32 102 68.64 102 70 102 C70 102.66 70 103.32 70 104 C70.99 104 71.98 104 73 104 C73 140.96 73 177.92 73 216 C73.99 216 74.98 216 76 216 C76 216.66 76 217.32 76 218 C76.99 218 77.98 218 79 218 C79 218.66 79 219.32 79 220 C79.99 220 80.98 220 82 220 C82 220.66 82 221.32 82 222 C83.32 222 84.64 222 86 222 C86 222.66 86 223.32 86 224 C86.99 224 87.98 224 89 224 C89 224.66 89 225.32 89 226 C90.32 226 91.64 226 93 226 C93 226.66 93 227.32 93 228 C93.99 228 94.98 228 96 228 C96 228.66 96 229.32 96 230 C97.32 230 98.64 230 100 230 C100 230.66 100 231.32 100 232 C100.99 232 101.98 232 103 232 C103 232.66 103 233.32 103 234 C104.32 234 105.64 234 107 234 C107 234.66 107 235.32 107 236 C107.99 236 108.98 236 110 236 C110 236.66 110 237.32 110 238 C111.32 238 112.64 238 114 238 C114 238.66 114 239.32 114 240 C114.99 240 115.98 240 117 240 C117 240.66 117 241.32 117 242 C118.32 242 119.64 242 121 242 C121 242.66 121 243.32 121 244 C121.99 244 122.98 244 124 244 C124 244.66 124 245.32 124 246 C124.99 246 125.98 246 127 246 C127 246.66 127 247.32 127 248 C127.99 248 128.98 248 130 248 C130.02313952 257.35308865 130.04092333 266.70616749 130.05181217 276.05927849 C130.05703746 280.4019967 130.06412873 284.74469538 130.07543945 289.08740234 C130.08628085 293.27598387 130.09227951 297.46454656 130.09487724 301.65314102 C130.09672922 303.25357485 130.10034552 304.8540076 130.10573006 306.45443344 C130.1129571 308.69083661 130.11399023 310.92716131 130.11352539 313.16357422 C130.115746 314.43820526 130.11796661 315.7128363 130.12025452 317.02609253 C130 320 130 320 129 322 C128.01 322 127.02 322 126 322 C126 322.66 126 323.32 126 324 C124.68 324 123.36 324 122 324 C122 324.66 122 325.32 122 326 C121.01 326 120.02 326 119 326 C119 326.66 119 327.32 119 328 C117.68 328 116.36 328 115 328 C115 328.66 115 329.32 115 330 C113.68 330 112.36 330 111 330 C111 330.66 111 331.32 111 332 C110.01 332 109.02 332 108 332 C108 332.66 108 333.32 108 334 C107.01 334 106.02 334 105 334 C105 334.66 105 335.32 105 336 C103.68 336 102.36 336 101 336 C101 336.66 101 337.32 101 338 C100.01 338 99.02 338 98 338 C98 338.66 98 339.32 98 340 C96.68 340 95.36 340 94 340 C94 340.66 94 341.32 94 342 C93.34 342 92.68 342 92 342 C92 342.66 92 343.32 92 344 C89.09399739 345.25664978 87.20395416 346 84 346 C84 346.66 84 347.32 84 348 C83.01 348 82.02 348 81 348 C81 348.66 81 349.32 81 350 C79.68 350 78.36 350 77 350 C77 350.66 77 351.32 77 352 C75.68 352 74.36 352 73 352 C73 352.66 73 353.32 73 354 C72.01 354 71.02 354 70 354 C70 354.66 70 355.32 70 356 C69.01 356 68.02 356 67 356 C67 356.66 67 357.32 67 358 C65.68 358 64.36 358 63 358 C63 358.66 63 359.32 63 360 C62.01 360 61.02 360 60 360 C60 360.66 60 361.32 60 362 C58.68 362 57.36 362 56 362 C56 362.66 56 363.32 56 364 C55.01 364 54.02 364 53 364 C53 364.66 53 365.32 53 366 C51.68 366 50.36 366 49 366 C49 366.66 49 367.32 49 368 C48.01 368 47.02 368 46 368 C46 368.66 46 369.32 46 370 C43.69 370.66 41.38 371.32 39 372 C39 372.66 39 373.32 39 374 C37.68 374 36.36 374 35 374 C35 374.66 35 375.32 35 376 C34.01 376 33.02 376 32 376 C32 376.66 32 377.32 32 378 C31.01 378 30.02 378 29 378 C29 378.66 29 379.32 29 380 C27.68 380 26.36 380 25 380 C25 380.66 25 381.32 25 382 C22.35261084 383.4606285 21.10551666 384 18 384 C18 384.66 18 385.32 18 386 C17.01 386 16.02 386 15 386 C15 386.66 15 387.32 15 388 C14.01 388 13.02 388 12 388 C12 388.66 12 389.32 12 390 C9.69 390.66 7.38 391.32 5 392 C5 392.66 5 393.32 5 394 C3.68 394 2.36 394 1 394 C1 393.34 1 392.68 1 392 C0.01 392 -0.98 392 -2 392 C-2 391.34 -2 390.68 -2 390 C-2.5775 389.855625 -3.155 389.71125 -3.75 389.5625 C-5.83333333 389.04166667 -7.91666667 388.52083333 -10 388 C-10 387.34 -10 386.68 -10 386 C-11.98 385.34 -13.96 384.68 -16 384 C-16 383.34 -16 382.68 -16 382 C-16.99 382 -17.98 382 -19 382 C-19 381.34 -19 380.68 -19 380 C-20.32 380 -21.64 380 -23 380 C-23 379.34 -23 378.68 -23 378 C-23.99 378 -24.98 378 -26 378 C-26 377.34 -26 376.68 -26 376 C-26.99 376 -27.98 376 -29 376 C-29 375.34 -29 374.68 -29 374 C-30.32 374 -31.64 374 -33 374 C-33 373.34 -33 372.68 -33 372 C-34.32 372 -35.64 372 -37 372 C-37 371.34 -37 370.68 -37 370 C-38.98 369.34 -40.96 368.68 -43 368 C-43 367.34 -43 366.68 -43 366 C-44.32 366 -45.64 366 -47 366 C-47 365.34 -47 364.68 -47 364 C-48.32 364 -49.64 364 -51 364 C-51 363.34 -51 362.68 -51 362 C-51.99 362 -52.98 362 -54 362 C-54 361.34 -54 360.68 -54 360 C-55.32 360 -56.64 360 -58 360 C-58 359.34 -58 358.68 -58 358 C-58.99 358 -59.98 358 -61 358 C-61 357.34 -61 356.68 -61 356 C-62.32 356 -63.64 356 -65 356 C-65 355.34 -65 354.68 -65 354 C-65.99 354 -66.98 354 -68 354 C-68 353.34 -68 352.68 -68 352 C-68.99 352 -69.98 352 -71 352 C-71 351.34 -71 350.68 -71 350 C-72.32 350 -73.64 350 -75 350 C-75 349.34 -75 348.68 -75 348 C-75.99 348 -76.98 348 -78 348 C-78 347.34 -78 346.68 -78 346 C-78.598125 345.855625 -79.19625 345.71125 -79.8125 345.5625 C-81.56150404 345.1127561 -83.28677023 344.57107659 -85 344 C-85 343.34 -85 342.68 -85 342 C-86.32 342 -87.64 342 -89 342 C-89 341.34 -89 340.68 -89 340 C-89.99 340 -90.98 340 -92 340 C-92 339.34 -92 338.68 -92 338 C-93.32 338 -94.64 338 -96 338 C-96 337.34 -96 336.68 -96 336 C-96.99 336 -97.98 336 -99 336 C-99 335.34 -99 334.68 -99 334 C-99.99 334 -100.98 334 -102 334 C-102 333.34 -102 332.68 -102 332 C-103.32 332 -104.64 332 -106 332 C-106 331.34 -106 330.68 -106 330 C-106.99 330 -107.98 330 -109 330 C-109 329.34 -109 328.68 -109 328 C-110.32 328 -111.64 328 -113 328 C-113 327.34 -113 326.68 -113 326 C-113.99 326 -114.98 326 -116 326 C-116 325.34 -116 324.68 -116 324 C-116.99 324 -117.98 324 -119 324 C-119 323.34 -119 322.68 -119 322 C-120.32 322 -121.64 322 -123 322 C-124.86981331 314.39163652 -125.28663808 307.17595987 -125.25878906 299.36181641 C-125.2622937 298.13783142 -125.26579834 296.91384644 -125.26940918 295.652771 C-125.27665611 292.32666559 -125.27502572 289.00081203 -125.26865101 285.67472124 C-125.26355385 282.18258888 -125.26829209 278.69046657 -125.27142334 275.19833374 C-125.27504933 269.34297777 -125.27029691 263.48767248 -125.26074219 257.63232422 C-125.24982969 250.86683067 -125.25340889 244.10145741 -125.264395 237.33596671 C-125.27347057 231.513235 -125.27475275 225.69053947 -125.26951766 219.86780298 C-125.26640336 216.3958332 -125.26597438 212.92392001 -125.27259064 209.45195389 C-125.27944074 205.58852703 -125.26994704 201.72523528 -125.25878906 197.86181641 C-125.26486176 196.13966415 -125.26486176 196.13966415 -125.27105713 194.38272095 C-125.26259766 192.80587524 -125.26259766 192.80587524 -125.25396729 191.19717407 C-125.25321323 190.2846821 -125.25245918 189.37219013 -125.25168228 188.43204689 C-124.98520018 185.85698691 -124.30249142 184.21709502 -123 182 C-122.34 182 -121.68 182 -121 182 C-121 182.66 -121 183.32 -121 184 C-120.01 184 -119.02 184 -118 184 C-118 184.66 -118 185.32 -118 186 C-117.01 186 -116.02 186 -115 186 C-115 186.66 -115 187.32 -115 188 C-113.68 188 -112.36 188 -111 188 C-111 188.66 -111 189.32 -111 190 C-109.68 190 -108.36 190 -107 190 C-107 190.66 -107 191.32 -107 192 C-106.01 192 -105.02 192 -104 192 C-104 192.66 -104 193.32 -104 194 C-102.68 194 -101.36 194 -100 194 C-100 194.66 -100 195.32 -100 196 C-99.01 196 -98.02 196 -97 196 C-97 196.66 -97 197.32 -97 198 C-95.68 198 -94.36 198 -93 198 C-93 198.66 -93 199.32 -93 200 C-92.01 200 -91.02 200 -90 200 C-90 200.66 -90 201.32 -90 202 C-89.01 202 -88.02 202 -87 202 C-87 234.34 -87 266.68 -87 300 C-86.01 300 -85.02 300 -84 300 C-84 300.66 -84 301.32 -84 302 C-83.01 302 -82.02 302 -81 302 C-81 302.66 -81 303.32 -81 304 C-79.68 304 -78.36 304 -77 304 C-77 304.66 -77 305.32 -77 306 C-75.68 306 -74.36 306 -73 306 C-73 306.66 -73 307.32 -73 308 C-71.02 308.66 -69.04 309.32 -67 310 C-67 310.66 -67 311.32 -67 312 C-65.68 312 -64.36 312 -63 312 C-63 312.66 -63 313.32 -63 314 C-62.01 314 -61.02 314 -60 314 C-60 314.66 -60 315.32 -60 316 C-58.68 316 -57.36 316 -56 316 C-56 316.66 -56 317.32 -56 318 C-54.35 318 -52.7 318 -51 318 C-51 318.66 -51 319.32 -51 320 C-50.34 320 -49.68 320 -49 320 C-49 320.66 -49 321.32 -49 322 C-48.01 322 -47.02 322 -46 322 C-46 322.66 -46 323.32 -46 324 C-45.401875 324.144375 -44.80375 324.28875 -44.1875 324.4375 C-42.43849596 324.8872439 -40.71322977 325.42892341 -39 326 C-39 326.66 -39 327.32 -39 328 C-37.68 328 -36.36 328 -35 328 C-35 328.66 -35 329.32 -35 330 C-34.01 330 -33.02 330 -32 330 C-32 330.66 -32 331.32 -32 332 C-31.01 332 -30.02 332 -29 332 C-29 332.66 -29 333.32 -29 334 C-27.68 334 -26.36 334 -25 334 C-25 334.66 -25 335.32 -25 336 C-22.69 336.66 -20.38 337.32 -18 338 C-18 338.66 -18 339.32 -18 340 C-17.01 340 -16.02 340 -15 340 C-15 340.66 -15 341.32 -15 342 C-13.68 342 -12.36 342 -11 342 C-11 342.66 -11 343.32 -11 344 C-10.01 344 -9.02 344 -8 344 C-8 344.66 -8 345.32 -8 346 C-6.68 346 -5.36 346 -4 346 C-4 346.66 -4 347.32 -4 348 C-0.7 348.66 2.6 349.32 6 350 C6 349.34 6 348.68 6 348 C7.32 348 8.64 348 10 348 C10 347.34 10 346.68 10 346 C10.99 346 11.98 346 13 346 C13 345.34 13 344.68 13 344 C14.32 344 15.64 344 17 344 C17 343.34 17 342.68 17 342 C18.28913487 341.32845067 19.58140204 340.66291141 20.875 340 C21.59429687 339.62875 22.31359375 339.2575 23.0546875 338.875 C25 338 25 338 27 338 C27 337.34 27 336.68 27 336 C28.32 336 29.64 336 31 336 C31 335.34 31 334.68 31 334 C33.64738916 332.5393715 34.89448334 332 38 332 C38 331.34 38 330.68 38 330 C38.99 330 39.98 330 41 330 C41 329.34 41 328.68 41 328 C42.32 328 43.64 328 45 328 C45 327.34 45 326.68 45 326 C45.99 326 46.98 326 48 326 C48 325.34 48 324.68 48 324 C49.98 323.34 51.96 322.68 54 322 C54.33 320.68 54.66 319.36 55 318 C57.33333333 318 59.66666667 318 62 318 C62 317.34 62 316.68 62 316 C62.99 316 63.98 316 65 316 C65 315.34 65 314.68 65 314 C66.32 314 67.64 314 69 314 C69 313.34 69 312.68 69 312 C70.32 312 71.64 312 73 312 C73 311.34 73 310.68 73 310 C73.99 310 74.98 310 76 310 C76 309.34 76 308.68 76 308 C76.99 308 77.98 308 79 308 C79 307.34 79 306.68 79 306 C80.32 306 81.64 306 83 306 C83 305.34 83 304.68 83 304 C83.99 304 84.98 304 86 304 C86 303.34 86 302.68 86 302 C87.32 302 88.64 302 90 302 C90 301.34 90 300.68 90 300 C90.99 300 91.98 300 93 300 C93 289.44 93 278.88 93 268 C92.01 268 91.02 268 90 268 C90 267.34 90 266.68 90 266 C88.68 266 87.36 266 86 266 C86 265.34 86 264.68 86 264 C85.01 264 84.02 264 83 264 C83 263.34 83 262.68 83 262 C82.01 262 81.02 262 80 262 C80 261.34 80 260.68 80 260 C78.68 260 77.36 260 76 260 C76 259.34 76 258.68 76 258 C75.01 258 74.02 258 73 258 C73 267.9 73 277.8 73 288 C72.34 288.66 71.68 289.32 71 290 C70.01 290 69.02 290 68 290 C68 290.66 68 291.32 68 292 C67.01 292 66.02 292 65 292 C65 292.66 65 293.32 65 294 C63.68 294 62.36 294 61 294 C61 294.66 61 295.32 61 296 C59.02 296.66 57.04 297.32 55 298 C55 298.66 55 299.32 55 300 C53.68 300 52.36 300 51 300 C51 300.66 51 301.32 51 302 C49.68 302 48.36 302 47 302 C47 302.66 47 303.32 47 304 C46.01 304 45.02 304 44 304 C44 304.66 44 305.32 44 306 C43.01 306 42.02 306 41 306 C41 283.56 41 261.12 41 238 C39.68 238 38.36 238 37 238 C37 237.34 37 236.68 37 236 C36.01 236 35.02 236 34 236 C34 235.34 34 234.68 34 234 C33.01 234 32.02 234 31 234 C31 233.34 31 232.68 31 232 C29.35 232 27.7 232 26 232 C26 231.34 26 230.68 26 230 C25.01 230 24.02 230 23 230 C23 229.34 23 228.68 23 228 C22.01 228 21.02 228 20 228 C20 227.34 20 226.68 20 226 C18.68 226 17.36 226 16 226 C16 225.34 16 224.68 16 224 C15.01 224 14.02 224 13 224 C13 223.34 13 222.68 13 222 C11.68 222 10.36 222 9 222 C9 221.34 9 220.68 9 220 C8.01 220 7.02 220 6 220 C6 219.34 6 218.68 6 218 C5.01 218 4.02 218 3 218 C3 217.34 3 216.68 3 216 C1.68 216 0.36 216 -1 216 C-1 215.34 -1 214.68 -1 214 C-1.99 214 -2.98 214 -4 214 C-4 213.34 -4 212.68 -4 212 C-4.99 212 -5.98 212 -7 212 C-7 211.34 -7 210.68 -7 210 C-8.32 210 -9.64 210 -11 210 C-11 209.34 -11 208.68 -11 208 C-12.32 208 -13.64 208 -15 208 C-15 207.34 -15 206.68 -15 206 C-15.8971875 205.7834375 -15.8971875 205.7834375 -16.8125 205.5625 C-18.56150404 205.1127561 -20.28677023 204.57107659 -22 204 C-22 203.34 -22 202.68 -22 202 C-23.32 202 -24.64 202 -26 202 C-26 201.34 -26 200.68 -26 200 C-26.99 200 -27.98 200 -29 200 C-29 199.34 -29 198.68 -29 198 C-30.32 198 -31.64 198 -33 198 C-33 197.34 -33 196.68 -33 196 C-33.66 196 -34.32 196 -35 196 C-35 232.3 -35 268.6 -35 306 C-35.99 306 -36.98 306 -38 306 C-38 305.34 -38 304.68 -38 304 C-39.32 304 -40.64 304 -42 304 C-42 303.34 -42 302.68 -42 302 C-42.99 302 -43.98 302 -45 302 C-45 301.34 -45 300.68 -45 300 C-46.32 300 -47.64 300 -49 300 C-49 299.34 -49 298.68 -49 298 C-49.99 298 -50.98 298 -52 298 C-52 297.34 -52 296.68 -52 296 C-52.598125 295.855625 -53.19625 295.71125 -53.8125 295.5625 C-55.56150404 295.1127561 -57.28677023 294.57107659 -59 294 C-59 293.34 -59 292.68 -59 292 C-60.32 292 -61.64 292 -63 292 C-63 291.34 -63 290.68 -63 290 C-64.32 290 -65.64 290 -67 290 C-68.1549457 284.45769316 -68.17250993 279.03920572 -68.20532227 273.40478516 C-68.21522186 272.35052338 -68.22512146 271.2962616 -68.23532104 270.21005249 C-68.2668281 266.73641176 -68.29165077 263.26275736 -68.31640625 259.7890625 C-68.33698509 257.37624767 -68.35798181 254.96343637 -68.37937927 252.55062866 C-68.43450379 246.20822005 -68.48395546 239.86577941 -68.53222656 233.52331543 C-68.58251188 227.04806681 -68.63816122 220.57286453 -68.69335938 214.09765625 C-68.80082327 201.39847738 -68.90247652 188.6992589 -69 176 C-69.66 176 -70.32 176 -71 176 C-71 175.34 -71 174.68 -71 174 C-72.32 174 -73.64 174 -75 174 C-75 173.34 -75 172.68 -75 172 C-77.97 171.01 -77.97 171.01 -81 170 C-81 169.34 -81 168.68 -81 168 C-82.32 168 -83.64 168 -85 168 C-85 167.34 -85 166.68 -85 166 C-86.32 166 -87.64 166 -89 166 C-89 165.34 -89 164.68 -89 164 C-89.99 164 -90.98 164 -92 164 C-92 163.34 -92 162.68 -92 162 C-93.32 162 -94.64 162 -96 162 C-96 161.34 -96 160.68 -96 160 C-96.99 160 -97.98 160 -99 160 C-99 159.34 -99 158.68 -99 158 C-100.32 158 -101.64 158 -103 158 C-103 157.34 -103 156.68 -103 156 C-103.99 156 -104.98 156 -106 156 C-106 155.34 -106 154.68 -106 154 C-106.99 154 -107.98 154 -109 154 C-109 153.34 -109 152.68 -109 152 C-110.32 152 -111.64 152 -113 152 C-113 151.34 -113 150.68 -113 150 C-113.99 150 -114.98 150 -116 150 C-116 149.34 -116 148.68 -116 148 C-116.99 148 -117.98 148 -119 148 C-119 147.34 -119 146.68 -119 146 C-120.32 146 -121.64 146 -123 146 C-124.38675231 143.22649539 -124.17883146 140.91292926 -124.23706055 137.80957031 C-124.26346115 136.5077179 -124.28986176 135.20586548 -124.31706238 133.86456299 C-124.34069667 132.43575714 -124.36390488 131.00694419 -124.38671875 129.578125 C-124.41237839 128.11561877 -124.43816238 126.65311473 -124.46406555 125.19061279 C-124.51707808 122.1206115 -124.56598847 119.05057431 -124.61254883 115.98046875 C-124.67277028 112.05512486 -124.74702467 108.13018573 -124.82492352 104.20515823 C-124.88267816 101.18200639 -124.93090286 98.15875611 -124.976511 95.13539886 C-124.99984758 93.6889333 -125.0265805 92.24251825 -125.05682945 90.79618073 C-125.09823177 88.76696869 -125.12496212 86.73747356 -125.15112305 84.70800781 C-125.17031296 83.55488098 -125.18950287 82.40175415 -125.20927429 81.21368408 C-124.98932563 77.83608083 -124.20861599 75.14887687 -123 72 C-122.34 72 -121.68 72 -121 72 C-121 71.34 -121 70.68 -121 70 C-119.68 70 -118.36 70 -117 70 C-117 69.34 -117 68.68 -117 68 C-116.01 68 -115.02 68 -114 68 C-114 67.34 -114 66.68 -114 66 C-112.68 66 -111.36 66 -110 66 C-110 65.34 -110 64.68 -110 64 C-109.01 64 -108.02 64 -107 64 C-107 63.34 -107 62.68 -107 62 C-105.68 62 -104.36 62 -103 62 C-103 61.34 -103 60.68 -103 60 C-102.01 60 -101.02 60 -100 60 C-100 59.34 -100 58.68 -100 58 C-99.01 58 -98.02 58 -97 58 C-97 57.34 -97 56.68 -97 56 C-94.09399739 54.74335022 -92.20395416 54 -89 54 C-89 53.34 -89 52.68 -89 52 C-86.35261084 50.5393715 -85.10551666 50 -82 50 C-82 49.34 -82 48.68 -82 48 C-81.01 48 -80.02 48 -79 48 C-79 47.34 -79 46.68 -79 46 C-77.68 46 -76.36 46 -75 46 C-75 45.34 -75 44.68 -75 44 C-74.01 44 -73.02 44 -72 44 C-72 43.34 -72 42.68 -72 42 C-71.01 42 -70.02 42 -69 42 C-69 41.34 -69 40.68 -69 40 C-67.68 40 -66.36 40 -65 40 C-65 39.34 -65 38.68 -65 38 C-64.01 38 -63.02 38 -62 38 C-62 37.34 -62 36.68 -62 36 C-60.68 36 -59.36 36 -58 36 C-58 35.34 -58 34.68 -58 34 C-57.01 34 -56.02 34 -55 34 C-55 33.34 -55 32.68 -55 32 C-53.68 32 -52.36 32 -51 32 C-51 31.34 -51 30.68 -51 30 C-50.01 30 -49.02 30 -48 30 C-48 29.34 -48 28.68 -48 28 C-46.68 28 -45.36 28 -44 28 C-44 27.34 -44 26.68 -44 26 C-43.01 26 -42.02 26 -41 26 C-41 25.34 -41 24.68 -41 24 C-40.01 24 -39.02 24 -38 24 C-38 23.34 -38 22.68 -38 22 C-36.68 22 -35.36 22 -34 22 C-34 21.34 -34 20.68 -34 20 C-33.01 20 -32.02 20 -31 20 C-31 19.34 -31 18.68 -31 18 C-29.68 18 -28.36 18 -27 18 C-27 17.34 -27 16.68 -27 16 C-25.68 16 -24.36 16 -23 16 C-23 15.34 -23 14.68 -23 14 C-22.01 14 -21.02 14 -20 14 C-20 13.34 -20 12.68 -20 12 C-19.01 12 -18.02 12 -17 12 C-17 11.34 -17 10.68 -17 10 C-15.68 10 -14.36 10 -13 10 C-13 9.34 -13 8.68 -13 8 C-12.01 8 -11.02 8 -10 8 C-10 7.34 -10 6.68 -10 6 C-8.68 6 -7.36 6 -6 6 C-6 5.34 -6 4.68 -6 4 C-5.34 4 -4.68 4 -4 4 C-4 3.34 -4 2.68 -4 2 C-2.68 2 -1.36 2 0 2 C0 1.34 0 0.68 0 0 Z M-1 104 C-1 104.66 -1 105.32 -1 106 C-2.32 106 -3.64 106 -5 106 C-5 106.66 -5 107.32 -5 108 C-5.99 108 -6.98 108 -8 108 C-8 108.66 -8 109.32 -8 110 C-9.32 110 -10.64 110 -12 110 C-12 110.66 -12 111.32 -12 112 C-12.99 112 -13.98 112 -15 112 C-15 112.66 -15 113.32 -15 114 C-16.32 114 -17.64 114 -19 114 C-19 114.66 -19 115.32 -19 116 C-19.99 116 -20.98 116 -22 116 C-22 116.66 -22 117.32 -22 118 C-22.99 118 -23.98 118 -25 118 C-25 118.66 -25 119.32 -25 120 C-26.32 120 -27.64 120 -29 120 C-29 120.66 -29 121.32 -29 122 C-29.99 122 -30.98 122 -32 122 C-32 122.66 -32 123.32 -32 124 C-32.99 124 -33.98 124 -35 124 C-35 133.9 -35 143.8 -35 154 C-34.34 154 -33.68 154 -33 154 C-33 154.66 -33 155.32 -33 156 C-32.01 156 -31.02 156 -30 156 C-30 156.66 -30 157.32 -30 158 C-28.68 158 -27.36 158 -26 158 C-26 158.66 -26 159.32 -26 160 C-25.01 160 -24.02 160 -23 160 C-23 160.66 -23 161.32 -23 162 C-21.68 162 -20.36 162 -19 162 C-19 162.66 -19 163.32 -19 164 C-18.01 164 -17.02 164 -16 164 C-16 164.66 -16 165.32 -16 166 C-14.68 166 -13.36 166 -12 166 C-12 166.66 -12 167.32 -12 168 C-11.01 168 -10.02 168 -9 168 C-9 168.66 -9 169.32 -9 170 C-7.35 170 -5.7 170 -4 170 C-4 170.66 -4 171.32 -4 172 C-3.34 172 -2.68 172 -2 172 C-2 172.66 -2 173.32 -2 174 C-0.68 174 0.64 174 2 174 C2 174.66 2 175.32 2 176 C2.99 176 3.98 176 5 176 C5 176.66 5 177.32 5 178 C5.99 178 6.98 178 8 178 C8 178.66 8 179.32 8 180 C9.32 180 10.64 180 12 180 C12 180.66 12 181.32 12 182 C15.08809695 183.76462683 16.23312136 184 20 184 C20 184.66 20 185.32 20 186 C20.99 186 21.98 186 23 186 C23 186.66 23 187.32 23 188 C23.99 188 24.98 188 26 188 C26 188.66 26 189.32 26 190 C27.32 190 28.64 190 30 190 C30 190.66 30 191.32 30 192 C30.99 192 31.98 192 33 192 C33 192.66 33 193.32 33 194 C34.32 194 35.64 194 37 194 C37 194.66 37 195.32 37 196 C38.32 196 39.64 196 41 196 C41 172.24 41 148.48 41 124 C40.01 124 39.02 124 38 124 C38 123.34 38 122.68 38 122 C37.01 122 36.02 122 35 122 C35 121.34 35 120.68 35 120 C33.68 120 32.36 120 31 120 C31 119.34 31 118.68 31 118 C30.01 118 29.02 118 28 118 C28 117.34 28 116.68 28 116 C27.01 116 26.02 116 25 116 C25 115.34 25 114.68 25 114 C23.68 114 22.36 114 21 114 C21 113.34 21 112.68 21 112 C20.01 112 19.02 112 18 112 C18 111.34 18 110.68 18 110 C16.68 110 15.36 110 14 110 C14 109.34 14 108.68 14 108 C13.01 108 12.02 108 11 108 C11 107.34 11 106.68 11 106 C9.68 106 8.36 106 7 106 C7 105.34 7 104.68 7 104 C4.36 104 1.72 104 -1 104 Z " fill="#F7A92E" transform="translate(125,0)"/>
<path d="M0 0 C1.65 0.99 3.3 1.98 5 3 C5 4.32 5 5.64 5 7 C6.08861328 7.16822266 6.08861328 7.16822266 7.19921875 7.33984375 C10.12563993 8.02961387 12.22287809 9.05510814 14.8125 10.5625 C15.60269531 11.01753906 16.39289063 11.47257813 17.20703125 11.94140625 C17.79871094 12.29074219 18.39039062 12.64007813 19 13 C19 13.66 19 14.32 19 15 C20.65 15 22.3 15 24 15 C24 15.66 24 16.32 24 17 C25.65 17.66 27.3 18.32 29 19 C29 50.02 29 81.04 29 113 C27.02 113 25.04 113 23 113 C23 113.66 23 114.32 23 115 C22.34 115 21.68 115 21 115 C21 115.66 21 116.32 21 117 C20.34 117 19.68 117 19 117 C19.33 115.68 19.66 114.36 20 113 C18.515 113.99 18.515 113.99 17 115 C16.01 115 15.02 115 14 115 C13.67 113.68 13.34 112.36 13 111 C11.35 110.67 9.7 110.34 8 110 C7.67 109.01 7.34 108.02 7 107 C7.66 107 8.32 107 9 107 C9 105.68 9 104.36 9 103 C8.34 103 7.68 103 7 103 C7 103.66 7 104.32 7 105 C6.34 105 5.68 105 5 105 C5 105.66 5 106.32 5 107 C3.35 107 1.7 107 0 107 C0 71.69 0 36.38 0 0 Z " fill="#F9A92D" transform="translate(59,181)"/>
<path d="M0 0 C1.32 0 2.64 0 4 0 C4 0.66 4 1.32 4 2 C4.99 2 5.98 2 7 2 C7 38.96 7 75.92 7 114 C7.99 114 8.98 114 10 114 C10 114.66 10 115.32 10 116 C10.99 116 11.98 116 13 116 C13 116.66 13 117.32 13 118 C13.99 118 14.98 118 16 118 C16 118.66 16 119.32 16 120 C17.32 120 18.64 120 20 120 C20 120.66 20 121.32 20 122 C17.36 122 14.72 122 12 122 C12 133.22 12 144.44 12 156 C14.64 156 17.28 156 20 156 C20 156.66 20 157.32 20 158 C19.01 158 18.02 158 17 158 C17 158.66 17 159.32 17 160 C16.01 160 15.02 160 14 160 C14 159.34 14 158.68 14 158 C12.68 158 11.36 158 10 158 C10 157.34 10 156.68 10 156 C9.01 156 8.02 156 7 156 C7 165.9 7 175.8 7 186 C5.02 186.99 5.02 186.99 3 188 C2.67 187.34 2.34 186.68 2 186 C2.66 186 3.32 186 4 186 C4.87803615 181.47631503 5.12353915 177.20189004 5.12025452 172.59683228 C5.12110894 171.87300051 5.12196337 171.14916875 5.12284368 170.40340269 C5.12448441 167.98977544 5.11900025 165.57621845 5.11352539 163.16259766 C5.11324319 161.42774456 5.1134019 159.69289135 5.1139679 157.95803833 C5.11425458 153.25605376 5.10837859 148.55409474 5.10139394 143.85211611 C5.09513904 138.93537812 5.09455491 134.01863954 5.09336853 129.10189819 C5.09026152 119.79477616 5.08205661 110.48766588 5.07201904 101.18054903 C5.06083835 90.58327333 5.05534252 79.98599707 5.05032361 69.38871694 C5.03987349 47.5924714 5.02228623 25.79623644 5 4 C4.01 4 3.02 4 2 4 C2 3.34 2 2.68 2 2 C1.34 2 0.68 2 0 2 C0 1.34 0 0.68 0 0 Z " fill="#DF8727" transform="translate(191,102)"/>
<path d="M0 0 C1.32 0.33 2.64 0.66 4 1 C0 4 0 4 -2 4 C-2 11.26 -2 18.52 -2 26 C-1.34 26 -0.68 26 0 26 C0.33 27.32 0.66 28.64 1 30 C2.98 30 4.96 30 7 30 C7 30.66 7 31.32 7 32 C7.66 32 8.32 32 9 32 C9.33 33.32 9.66 34.64 10 36 C11.65 36.33 13.3 36.66 15 37 C15.66 37.66 16.32 38.32 17 39 C18.32 39.33 19.64 39.66 21 40 C21 40.99 21 41.98 21 43 C22.98 43.33 24.96 43.66 27 44 C27 36.74 27 29.48 27 22 C27.66 22 28.32 22 29 22 C29 31.9 29 41.8 29 52 C29.66 52 30.32 52 31 52 C31 52.66 31 53.32 31 54 C29.68 54 28.36 54 27 54 C26.67 53.34 26.34 52.68 26 52 C25.01 51.67 24.02 51.34 23 51 C23 50.34 23 49.68 23 49 C22.47664063 48.91363281 21.95328125 48.82726562 21.4140625 48.73828125 C18.10601472 47.72659674 15.32062067 45.95694847 12.375 44.1875 C6.76356636 40.88752327 1.16028371 38.15751872 -5 36 C-5 35.01 -5 34.02 -5 33 C-5.66 32.67 -6.32 32.34 -7 32 C-6.01 32 -5.02 32 -4 32 C-4.00523682 31.16227051 -4.01047363 30.32454102 -4.01586914 29.46142578 C-4.03290014 26.35661064 -4.04544482 23.25181929 -4.05493164 20.14697266 C-4.06244036 18.14093449 -4.0751447 16.13491798 -4.08789062 14.12890625 C-4.09111328 12.87207031 -4.09433594 11.61523438 -4.09765625 10.3203125 C-4.10289307 9.15773926 -4.10812988 7.99516602 -4.11352539 6.79736328 C-4 4 -4 4 -3 2 C-2.01 2 -1.02 2 0 2 C0 1.34 0 0.68 0 0 Z " fill="#BF8343" transform="translate(61,102)"/>
<path d="M0 0 C1.32 0 2.64 0 4 0 C4 0.66 4 1.32 4 2 C4.99 2.33 5.98 2.66 7 3 C7 62.73 7 122.46 7 184 C7.66 184 8.32 184 9 184 C9 184.66 9 185.32 9 186 C8.01 186 7.02 186 6 186 C6 163.56 6 141.12 6 118 C4.68 118 3.36 118 2 118 C2 117.34 2 116.68 2 116 C1.01 116 0.02 116 -1 116 C-1 115.34 -1 114.68 -1 114 C-1.99 114 -2.98 114 -4 114 C-4 113.34 -4 112.68 -4 112 C-5.65 112 -7.3 112 -9 112 C-9 111.34 -9 110.68 -9 110 C-9.99 110 -10.98 110 -12 110 C-12 109.34 -12 108.68 -12 108 C-10.02 108 -8.04 108 -6 108 C-5.34 108.66 -4.68 109.32 -4 110 C-4 109.34 -4 108.68 -4 108 C-2.35 108 -0.7 108 1 108 C1 109.98 1 111.96 1 114 C1.66 114 2.32 114 3 114 C3.33 104.1 3.66 94.2 4 84 C3.34 83.67 2.68 83.34 2 83 C1.67 80.69 1.34 78.38 1 76 C0.34 76 -0.32 76 -1 76 C-1 75.34 -1 74.68 -1 74 C-0.01 74 0.98 74 2 74 C2 74.66 2 75.32 2 76 C3.32 76 4.64 76 6 76 C6 52.24 6 28.48 6 4 C5.01 4 4.02 4 3 4 C3 3.34 3 2.68 3 2 C2.01 2 1.02 2 0 2 C0 1.34 0 0.68 0 0 Z " fill="#98714A" transform="translate(160,120)"/>
<path d="M0 0 C1.65 0 3.3 0 5 0 C5.99 0.99 6.98 1.98 8 3 C9.32 3.33 10.64 3.66 12 4 C12 3.34 12 2.68 12 2 C13.98 2 15.96 2 18 2 C18 3.98 18 5.96 18 8 C17.01 8.33 16.02 8.66 15 9 C15 45.63 15 82.26 15 120 C16.65 120 18.3 120 20 120 C20 119.34 20 118.68 20 118 C20.66 118 21.32 118 22 118 C22 117.34 22 116.68 22 116 C22.66 116 23.32 116 24 116 C24 117.32 24 118.64 24 120 C23.34 120 22.68 120 22 120 C23.79819816 123.4260261 23.79819816 123.4260261 28 124 C28.33 125.32 28.66 126.64 29 128 C26.61435923 127.42415568 24.33317216 126.77772405 22 126 C22 125.34 22 124.68 22 124 C20.68 124 19.36 124 18 124 C18 123.34 18 122.68 18 122 C16.68 122 15.36 122 14 122 C12.8450543 116.45769316 12.82749007 111.03920572 12.79467773 105.40478516 C12.78477814 104.35052338 12.77487854 103.2962616 12.76467896 102.21005249 C12.7331719 98.73641176 12.70834923 95.26275736 12.68359375 91.7890625 C12.66301491 89.37624767 12.64201819 86.96343637 12.62062073 84.55062866 C12.56549621 78.20822005 12.51604454 71.86577941 12.46777344 65.52331543 C12.41748812 59.04806681 12.36183878 52.57286453 12.30664062 46.09765625 C12.19917673 33.39847738 12.09752348 20.6992589 12 8 C11.34 8 10.68 8 10 8 C10 7.34 10 6.68 10 6 C8.68 6 7.36 6 6 6 C6 5.34 6 4.68 6 4 C4.02 3.34 2.04 2.68 0 2 C0 1.34 0 0.68 0 0 Z " fill="#C38D45" transform="translate(44,168)"/>
<path d="M0 0 C0.66 0 1.32 0 2 0 C2 0.66 2 1.32 2 2 C2.99 2 3.98 2 5 2 C5 2.66 5 3.32 5 4 C5.99 4 6.98 4 8 4 C8 4.66 8 5.32 8 6 C9.32 6 10.64 6 12 6 C12 6.66 12 7.32 12 8 C13.32 8 14.64 8 16 8 C16 8.66 16 9.32 16 10 C14.68 10 13.36 10 12 10 C12 10.66 12 11.32 12 12 C11.34 12 10.68 12 10 12 C10 11.34 10 10.68 10 10 C8.02 10 6.04 10 4 10 C4 9.34 4 8.68 4 8 C3.01 8 2.02 8 1 8 C1.00092179 8.58492785 1.00184359 9.16985569 1.00279331 9.77250862 C1.02496445 24.06440021 1.04146775 38.35629026 1.05181217 52.64819527 C1.05694877 59.55990342 1.06394069 66.47160004 1.07543945 73.38330078 C1.08654476 80.06173739 1.09229568 86.74015957 1.09487724 93.4186058 C1.09671545 95.95808983 1.10030482 98.49757326 1.10573006 101.03705215 C1.1581055 126.58472866 1.1581055 126.58472866 0 138 C-0.33 138 -0.66 138 -1 138 C-2.03948424 131.17280526 -2.14799854 124.48748678 -2.14526367 117.58886719 C-2.14862228 116.36517426 -2.1519809 115.14148132 -2.15544128 113.88070679 C-2.16327855 110.54628843 -2.1666166 107.21193235 -2.16725707 103.87750912 C-2.16797032 101.79227116 -2.1701097 99.70703964 -2.17275429 97.62180328 C-2.18198274 90.3422657 -2.18609174 83.06274636 -2.18530273 75.78320312 C-2.1847005 69.00299031 -2.19528714 62.22285667 -2.2110464 55.44266391 C-2.22411598 49.61148669 -2.22948698 43.78033541 -2.22884732 37.94914365 C-2.22859245 34.4704288 -2.23143882 30.99178463 -2.24202538 27.51308441 C-2.25349358 23.63987611 -2.24896317 19.76677722 -2.24291992 15.89355469 C-2.24853943 14.7423111 -2.25415894 13.5910675 -2.25994873 12.40493774 C-2.25575424 11.35081696 -2.25155975 10.29669617 -2.24723816 9.21063232 C-2.24778293 8.29554272 -2.24832769 7.38045311 -2.24888897 6.43763351 C-1.9854889 3.85787741 -1.30550962 2.22016796 0 0 Z " fill="#E6A336" transform="translate(2,182)"/>
<path d="M0 0 C1.32 0 2.64 0 4 0 C4 0.66 4 1.32 4 2 C3.34 2 2.68 2 2 2 C2 38.3 2 74.6 2 112 C1.01 112 0.02 112 -1 112 C-1 111.34 -1 110.68 -1 110 C-2.32 110 -3.64 110 -5 110 C-5 109.34 -5 108.68 -5 108 C-5.99 108 -6.98 108 -8 108 C-8 107.34 -8 106.68 -8 106 C-9.32 106 -10.64 106 -12 106 C-12 105.34 -12 104.68 -12 104 C-12.99 104 -13.98 104 -15 104 C-15 103.34 -15 102.68 -15 102 C-12.03 101.01 -12.03 101.01 -9 100 C-9.33 101.32 -9.66 102.64 -10 104 C-9.34 104 -8.68 104 -8 104 C-8 103.34 -8 102.68 -8 102 C-7.34 102 -6.68 102 -6 102 C-6 101.34 -6 100.68 -6 100 C-4.02 100 -2.04 100 0 100 C0 67 0 34 0 0 Z " fill="#878170" transform="translate(88,194)"/>
<path d="M0 0 C0.99 0 1.98 0 3 0 C4.27766915 2.55533829 4.1258641 4.34952663 4.12698364 7.21136475 C4.12980347 8.31611145 4.13262329 9.42085815 4.13552856 10.55908203 C4.13350433 11.7767627 4.1314801 12.99444336 4.12939453 14.24902344 C4.13114685 15.52714905 4.13289917 16.80527466 4.13470459 18.12213135 C4.13927414 21.63471004 4.13749084 25.14725945 4.1343255 28.65983868 C4.13179728 32.33525866 4.13414094 36.01067611 4.13571167 39.68609619 C4.13753292 45.86332652 4.13512916 52.04054492 4.13037109 58.21777344 C4.12493818 65.35338926 4.12668423 72.48897647 4.1321975 79.62459159 C4.13674137 85.75121675 4.13737264 91.87783332 4.13475883 98.00445962 C4.13320184 101.66327397 4.13298628 105.32207489 4.13629532 108.98088837 C4.13973064 113.06507549 4.13496344 117.14921367 4.12939453 121.23339844 C4.13141876 122.44298218 4.13344299 123.65256592 4.13552856 124.89880371 C4.13270874 126.01482971 4.12988892 127.13085571 4.12698364 128.28070068 C4.12660662 129.24598568 4.12622959 130.21127068 4.12584114 131.20580673 C3.99089721 134.20211965 3.5486389 137.05362772 3 140 C1.68 140 0.36 140 -1 140 C-1 139.34 -1 138.68 -1 138 C-1.99 138 -2.98 138 -4 138 C-4 137.34 -4 136.68 -4 136 C-5.32 136 -6.64 136 -8 136 C-8 135.34 -8 134.68 -8 134 C-8.99 134 -9.98 134 -11 134 C-11 133.34 -11 132.68 -11 132 C-10.443125 132.144375 -9.88625 132.28875 -9.3125 132.4375 C-5.81706319 133.28774139 -2.6090264 134 1 134 C1.33 90.44 1.66 46.88 2 2 C1.34 2 0.68 2 0 2 C0 1.34 0 0.68 0 0 Z " fill="#75717D" transform="translate(251,72)"/>
<path d="M0 0 C0.66 0 1.32 0 2 0 C2 31.68 2 63.36 2 96 C3.98 96 5.96 96 8 96 C8 95.34 8 94.68 8 94 C8.66 94 9.32 94 10 94 C10 93.34 10 92.68 10 92 C10.66 92 11.32 92 12 92 C12 93.98 12 95.96 12 98 C11.34 98 10.68 98 10 98 C10.33 99.32 10.66 100.64 11 102 C12.98 102.66 14.96 103.32 17 104 C18.65 105.98 20.3 107.96 22 110 C20.68 110 19.36 110 18 110 C18 109.34 18 108.68 18 108 C17.401875 107.855625 16.80375 107.71125 16.1875 107.5625 C14.43849596 107.1127561 12.71322977 106.57107659 11 106 C11 105.34 11 104.68 11 104 C10.401875 103.855625 9.80375 103.71125 9.1875 103.5625 C7.43849596 103.1127561 5.71322977 102.57107659 4 102 C4 101.34 4 100.68 4 100 C2.68 100 1.36 100 0 100 C-0.79200844 97.2117188 -1.11639168 94.76924943 -1.08229065 91.87445068 C-1.07525116 91.06119324 -1.06821167 90.24793579 -1.06095886 89.41003418 C-1.04801285 88.52674438 -1.03506683 87.64345459 -1.02172852 86.73339844 C-1.01212097 85.79647156 -1.00251343 84.85954468 -0.99261475 83.89422607 C-0.95964953 80.79919868 -0.91930761 77.70431352 -0.87890625 74.609375 C-0.85460272 72.4627533 -0.83075928 70.31612635 -0.80735779 68.16949463 C-0.74454007 62.52073174 -0.67546677 56.87206193 -0.60510254 51.22338867 C-0.53439828 45.45886472 -0.46959382 39.69427479 -0.40429688 33.9296875 C-0.27531431 22.61971917 -0.13972483 11.30984037 0 0 Z " fill="#93836E" transform="translate(218,94)"/>
<path d="M0 0 C0.99 0 1.98 0 3 0 C3 0.66 3 1.32 3 2 C2.01 2.495 2.01 2.495 1 3 C1.66 3.33 2.32 3.66 3 4 C3 4.66 3 5.32 3 6 C3.66 6 4.32 6 5 6 C5 5.34 5 4.68 5 4 C5.66 4 6.32 4 7 4 C7 4.66 7 5.32 7 6 C7.99 5.34 8.98 4.68 10 4 C11.32 4 12.64 4 14 4 C14 3.34 14 2.68 14 2 C15.65 2 17.3 2 19 2 C19 3.32 19 4.64 19 6 C17.02 6 15.04 6 13 6 C13 6.66 13 7.32 13 8 C11.68 8 10.36 8 9 8 C9 8.66 9 9.32 9 10 C8.01 10 7.02 10 6 10 C6 10.66 6 11.32 6 12 C4.68 12 3.36 12 2 12 C2 12.66 2 13.32 2 14 C1.01 14 0.02 14 -1 14 C-1 14.66 -1 15.32 -1 16 C-2.32 16 -3.64 16 -5 16 C-5 16.66 -5 17.32 -5 18 C-5.99 18 -6.98 18 -8 18 C-8 18.66 -8 19.32 -8 20 C-8.99 20 -9.98 20 -11 20 C-11 20.66 -11 21.32 -11 22 C-12.32 22 -13.64 22 -15 22 C-15 22.66 -15 23.32 -15 24 C-15.99 24 -16.98 24 -18 24 C-18 24.66 -18 25.32 -18 26 C-18.99 26 -19.98 26 -21 26 C-21 25.34 -21 24.68 -21 24 C-20.34 24 -19.68 24 -19 24 C-19 23.34 -19 22.68 -19 22 C-19.66 22 -20.32 22 -21 22 C-21 21.34 -21 20.68 -21 20 C-20.34 20 -19.68 20 -19 20 C-19 19.34 -19 18.68 -19 18 C-18.38511719 17.93941406 -17.77023438 17.87882812 -17.13671875 17.81640625 C-16.32847656 17.73261719 -15.52023438 17.64882812 -14.6875 17.5625 C-13.88699219 17.48128906 -13.08648437 17.40007812 -12.26171875 17.31640625 C-9.83912821 17.04734307 -9.83912821 17.04734307 -7 16 C-7 14.68 -7 13.36 -7 12 C-7.66 11.67 -8.32 11.34 -9 11 C-8.67 10.67 -8.34 10.34 -8 10 C-7.67 7.36 -7.34 4.72 -7 2 C-5.02 1.67 -3.04 1.34 -1 1 C-0.67 0.67 -0.34 0.34 0 0 Z " fill="#ECA633" transform="translate(111,98)"/>
<path d="M0 0 C2.64 0 5.28 0 8 0 C8 0.66 8 1.32 8 2 C8.99 2 9.98 2 11 2 C11 2.66 11 3.32 11 4 C12.32 4 13.64 4 15 4 C15 4.66 15 5.32 15 6 C13.35 6 11.7 6 10 6 C10 5.34 10 4.68 10 4 C9.34 4 8.68 4 8 4 C8.33 4.99 8.66 5.98 9 7 C8.67 7.99 8.34 8.98 8 10 C7.34 10 6.68 10 6 10 C6 10.66 6 11.32 6 12 C4.35 12 2.7 12 1 12 C0.67 12.66 0.34 13.32 0 14 C-3.08809695 15.76462683 -4.23312136 16 -8 16 C-8 15.34 -8 14.68 -8 14 C-14.525434 12.99607024 -14.525434 12.99607024 -21 14 C-21 13.34 -21 12.68 -21 12 C-20.01 12 -19.02 12 -18 12 C-18 11.34 -18 10.68 -18 10 C-16.68 10 -15.36 10 -14 10 C-14 9.34 -14 8.68 -14 8 C-13.01 8 -12.02 8 -11 8 C-11 7.34 -11 6.68 -11 6 C-10.01 6 -9.02 6 -8 6 C-8 5.34 -8 4.68 -8 4 C-6.68 4 -5.36 4 -4 4 C-4 3.34 -4 2.68 -4 2 C-2.68 2 -1.36 2 0 2 C0 1.34 0 0.68 0 0 Z " fill="#EDA635" transform="translate(124,66)"/>
<path d="M0 0 C1.32 0 2.64 0 4 0 C4 0.66 4 1.32 4 2 C4.99 2 5.98 2 7 2 C7 2.66 7 3.32 7 4 C7.99 4 8.98 4 10 4 C10 36.34 10 68.68 10 102 C9.34 102 8.68 102 8 102 C8 70.32 8 38.64 8 6 C7.01 6 6.02 6 5 6 C5 5.34 5 4.68 5 4 C3.35 4 1.7 4 0 4 C0 2.68 0 1.36 0 0 Z " fill="#737B79" transform="translate(28,198)"/>
<path d="M0 0 C6.435 2.97 6.435 2.97 13 6 C13 6.66 13 7.32 13 8 C13.825 8.2475 14.65 8.495 15.5 8.75 C19.52373471 10.18704811 23.21979024 12.02354515 27 14 C27 14.66 27 15.32 27 16 C27.66 16 28.32 16 29 16 C29 18.31 29 20.62 29 23 C25.20696275 21.99806563 22.28463659 21.18975773 19 19 C19 18.34 19 17.68 19 17 C18.278125 16.731875 17.55625 16.46375 16.8125 16.1875 C14 15 14 15 11.4375 13.4375 C9.21853522 12.12887975 7.50924843 11.46467564 5 11 C5 9.68 5 8.36 5 7 C3.68 6.67 2.36 6.34 1 6 C0.67 4.02 0.34 2.04 0 0 Z " fill="#E08727" transform="translate(59,177)"/>
<path d="M0 0 C1.65 0 3.3 0 5 0 C5.66 0.99 6.32 1.98 7 3 C7.66 3 8.32 3 9 3 C9.66 4.32 10.32 5.64 11 7 C12.32 7.33 13.64 7.66 15 8 C15 10 15 12 15 14 C13.68 14 12.36 14 11 14 C11 13.34 11 12.68 11 12 C9.02 12 7.04 12 5 12 C5 12.66 5 13.32 5 14 C3.02 14 1.04 14 -1 14 C-1 13.34 -1 12.68 -1 12 C-2.32 12 -3.64 12 -5 12 C-5 11.01 -5 10.02 -5 9 C-5.66 8.67 -6.32 8.34 -7 8 C-7 7.34 -7 6.68 -7 6 C-6.34 6 -5.68 6 -5 6 C-5 5.34 -5 4.68 -5 4 C-3.68 4 -2.36 4 -1 4 C-0.67 2.68 -0.34 1.36 0 0 Z " fill="#FAA92C" transform="translate(125,2)"/>
<path d="M0 0 C0.33 0 0.66 0 1 0 C1 1.65 1 3.3 1 5 C1.66 5 2.32 5 3 5 C3 4.34 3 3.68 3 3 C4.98 3 6.96 3 9 3 C9 3.66 9 4.32 9 5 C10.32 5 11.64 5 13 5 C12.34 6.98 11.68 8.96 11 11 C11.99 11 12.98 11 14 11 C14.33 10.34 14.66 9.68 15 9 C15 9.66 15 10.32 15 11 C16.32 9.68 17.64 8.36 19 7 C18.34 7 17.68 7 17 7 C17 6.34 17 5.68 17 5 C16.34 5 15.68 5 15 5 C15 4.34 15 3.68 15 3 C16.32 3 17.64 3 19 3 C19 3.66 19 4.32 19 5 C19.66 5 20.32 5 21 5 C22 8 22 8 21 11 C20.34 11 19.68 11 19 11 C19.33 12.32 19.66 13.64 20 15 C21.98 15.66 23.96 16.32 26 17 C26.495 18.98 26.495 18.98 27 21 C26.01 21 25.02 21 24 21 C24 20.34 24 19.68 24 19 C22.68 19 21.36 19 20 19 C20 18.34 20 17.68 20 17 C19.01 17 18.02 17 17 17 C17 16.34 17 15.68 17 15 C15.68 15 14.36 15 13 15 C13 14.34 13 13.68 13 13 C12.01 13 11.02 13 10 13 C10 12.34 10 11.68 10 11 C9.01 11 8.02 11 7 11 C7 10.34 7 9.68 7 9 C5.68 9 4.36 9 3 9 C3 8.34 3 7.68 3 7 C2.01 7 1.02 7 0 7 C0 6.34 0 5.68 0 5 C-0.598125 4.855625 -1.19625 4.71125 -1.8125 4.5625 C-3.56150404 4.1127561 -5.28677023 3.57107659 -7 3 C-7 2.34 -7 1.68 -7 1 C-4.61435923 1.57584432 -2.33317216 2.22227595 0 3 C0 2.01 0 1.02 0 0 Z " fill="#F3AA31" transform="translate(47,341)"/>
<path d="M0 0 C1.98 0 3.96 0 6 0 C6 0.66 6 1.32 6 2 C7.98 2 9.96 2 12 2 C12 2.66 12 3.32 12 4 C11.01 4 10.02 4 9 4 C9 4.66 9 5.32 9 6 C7.68 6 6.36 6 5 6 C5 6.66 5 7.32 5 8 C4.34 8 3.68 8 3 8 C3 8.66 3 9.32 3 10 C0.09399739 11.25664978 -1.79604584 12 -5 12 C-5 12.66 -5 13.32 -5 14 C-5.99 14 -6.98 14 -8 14 C-8 14.66 -8 15.32 -8 16 C-9.65 15.67 -11.3 15.34 -13 15 C-13.33 14.01 -13.66 13.02 -14 12 C-13.34 12 -12.68 12 -12 12 C-12 11.34 -12 10.68 -12 10 C-12.66 10 -13.32 10 -14 10 C-14 9.34 -14 8.68 -14 8 C-14.66 7.67 -15.32 7.34 -16 7 C-13 5 -13 5 -8 6 C-8 5.34 -8 4.68 -8 4 C-7.01 4.33 -6.02 4.66 -5 5 C-5.33 5.99 -5.66 6.98 -6 8 C-4.02 8 -2.04 8 0 8 C0 7.34 0 6.68 0 6 C-0.66 6 -1.32 6 -2 6 C-2 5.34 -2 4.68 -2 4 C-1.01 4 -0.02 4 1 4 C1 4.66 1 5.32 1 6 C1.99 6 2.98 6 4 6 C4 5.34 4 4.68 4 4 C3.34 4 2.68 4 2 4 C2 3.34 2 2.68 2 2 C1.34 2 0.68 2 0 2 C0 1.34 0 0.68 0 0 Z " fill="#DFA13C" transform="translate(214,334)"/>
<path d="M0 0 C0.66 0 1.32 0 2 0 C2 0.66 2 1.32 2 2 C6.02992782 1.44687265 10.02022924 0.8441938 14 0 C14 0.66 14 1.32 14 2 C12.68 2 11.36 2 10 2 C10 2.66 10 3.32 10 4 C10.66 4 11.32 4 12 4 C12 4.66 12 5.32 12 6 C14.31 6 16.62 6 19 6 C19 7.32 19 8.64 19 10 C19.99 10.33 20.98 10.66 22 11 C22 11.66 22 12.32 22 13 C22.66 13.33 23.32 13.66 24 14 C23.01 14 22.02 14 21 14 C21 13.34 21 12.68 21 12 C20.01 12 19.02 12 18 12 C18 11.34 18 10.68 18 10 C16.68 10 15.36 10 14 10 C14 9.34 14 8.68 14 8 C13.01 8 12.02 8 11 8 C11 7.34 11 6.68 11 6 C10.34 6 9.68 6 9 6 C9 6.66 9 7.32 9 8 C7.68 8 6.36 8 5 8 C5 8.66 5 9.32 5 10 C4.01 10 3.02 10 2 10 C2 10.66 2 11.32 2 12 C0.68 12 -0.64 12 -2 12 C-2 12.66 -2 13.32 -2 14 C-2.99 14 -3.98 14 -5 14 C-5 14.66 -5 15.32 -5 16 C-5.99 16 -6.98 16 -8 16 C-8 16.66 -8 17.32 -8 18 C-8.99 18 -9.98 18 -11 18 C-10.34 16.02 -9.68 14.04 -9 12 C-7.35 12 -5.7 12 -4 12 C-4 11.34 -4 10.68 -4 10 C-4.66 10 -5.32 10 -6 10 C-6 9.34 -6 8.68 -6 8 C-3.36 8 -0.72 8 2 8 C2 7.34 2 6.68 2 6 C2.66 6 3.32 6 4 6 C4 5.34 4 4.68 4 4 C2.68 4 1.36 4 0 4 C0 2.68 0 1.36 0 0 Z " fill="#FBA731" transform="translate(118,36)"/>
<path d="M0 0 C0.66 0 1.32 0 2 0 C2 0.66 2 1.32 2 2 C2.99 2 3.98 2 5 2 C5 2.66 5 3.32 5 4 C3.35 4 1.7 4 0 4 C0 48.22 0 92.44 0 138 C-0.33 138 -0.66 138 -1 138 C-2.03948424 131.17280526 -2.14799854 124.48748678 -2.14526367 117.58886719 C-2.14862228 116.36517426 -2.1519809 115.14148132 -2.15544128 113.88070679 C-2.16327855 110.54628843 -2.1666166 107.21193235 -2.16725707 103.87750912 C-2.16797032 101.79227116 -2.1701097 99.70703964 -2.17275429 97.62180328 C-2.18198274 90.3422657 -2.18609174 83.06274636 -2.18530273 75.78320312 C-2.1847005 69.00299031 -2.19528714 62.22285667 -2.2110464 55.44266391 C-2.22411598 49.61148669 -2.22948698 43.78033541 -2.22884732 37.94914365 C-2.22859245 34.4704288 -2.23143882 30.99178463 -2.24202538 27.51308441 C-2.25349358 23.63987611 -2.24896317 19.76677722 -2.24291992 15.89355469 C-2.24853943 14.7423111 -2.25415894 13.5910675 -2.25994873 12.40493774 C-2.25575424 11.35081696 -2.25155975 10.29669617 -2.24723816 9.21063232 C-2.24778293 8.29554272 -2.24832769 7.38045311 -2.24888897 6.43763351 C-1.9854889 3.85787741 -1.30550962 2.22016796 0 0 Z " fill="#4169A0" transform="translate(2,182)"/>
<path d="M0 0 C1.32 0 2.64 0 4 0 C4 0.66 4 1.32 4 2 C4.99 2 5.98 2 7 2 C7 38.96 7 75.92 7 114 C7.99 114 8.98 114 10 114 C10 114.66 10 115.32 10 116 C8.68 116 7.36 116 6 116 C5.67 79.04 5.34 42.08 5 4 C4.01 4 3.02 4 2 4 C2 3.34 2 2.68 2 2 C1.34 2 0.68 2 0 2 C0 1.34 0 0.68 0 0 Z " fill="#A57D5F" transform="translate(191,102)"/>
<path d="M0 0 C2.64 0.66 5.28 1.32 8 2 C8 2.66 8 3.32 8 4 C7.34 4 6.68 4 6 4 C6.33 4.99 6.66 5.98 7 7 C11.455 6.505 11.455 6.505 16 6 C16 6.66 16 7.32 16 8 C14.68 8 13.36 8 12 8 C12 8.66 12 9.32 12 10 C12.66 10 13.32 10 14 10 C14 12 14 14 14 16 C13.01 16 12.02 16 11 16 C11 15.34 11 14.68 11 14 C9.68 14 8.36 14 7 14 C7 13.34 7 12.68 7 12 C6.01 12 5.02 12 4 12 C4 11.34 4 10.68 4 10 C2.68 10 1.36 10 0 10 C0 9.34 0 8.68 0 8 C-0.99 8 -1.98 8 -3 8 C-3 7.34 -3 6.68 -3 6 C-3.99 6 -4.98 6 -6 6 C-6 5.34 -6 4.68 -6 4 C-4.68 4 -3.36 4 -2 4 C-2 3.34 -2 2.68 -2 2 C-1.34 2 -0.68 2 0 2 C0 1.34 0 0.68 0 0 Z " fill="#DC9E40" transform="translate(22,148)"/>
<path d="M0 0 C0.66 -0.33 1.32 -0.66 2 -1 C2 -0.34 2 0.32 2 1 C2.66 1 3.32 1 4 1 C4 1.66 4 2.32 4 3 C4.66 3 5.32 3 6 3 C6.33 4.32 6.66 5.64 7 7 C7.99 7 8.98 7 10 7 C10 7.66 10 8.32 10 9 C10.66 9 11.32 9 12 9 C12 7.68 12 6.36 12 5 C13.32 5 14.64 5 16 5 C16 5.99 16 6.98 16 8 C16.66 8.33 17.32 8.66 18 9 C18 9.66 18 10.32 18 11 C17.34 11 16.68 11 16 11 C16 11.66 16 12.32 16 13 C16.99 13 17.98 13 19 13 C19 13.66 19 14.32 19 15 C19.99 15.33 20.98 15.66 22 16 C20.68 16.33 19.36 16.66 18 17 C18 16.34 18 15.68 18 15 C17.01 15 16.02 15 15 15 C15 14.34 15 13.68 15 13 C13.68 13 12.36 13 11 13 C11 12.34 11 11.68 11 11 C10.01 11 9.02 11 8 11 C8 10.34 8 9.68 8 9 C7.01 9 6.02 9 5 9 C5 8.34 5 7.68 5 7 C3.68 7 2.36 7 1 7 C1 6.34 1 5.68 1 5 C0.01 5 -0.98 5 -2 5 C-2 4.34 -2 3.68 -2 3 C-3.32 3 -4.64 3 -6 3 C-6 2.34 -6 1.68 -6 1 C-6.99 1 -7.98 1 -9 1 C-9 0.34 -9 -0.32 -9 -1 C-5 -2 -5 -2 0 0 Z " fill="#CF9B45" transform="translate(18,325)"/>
<path d="M0 0 C1.32 0 2.64 0 4 0 C4.86671086 2.94932914 5.07713315 5.4201936 4.9140625 8.484375 C4.87023437 9.33773437 4.82640625 10.19109375 4.78125 11.0703125 C4.70390625 12.39675781 4.70390625 12.39675781 4.625 13.75 C4.58117187 14.61882812 4.53734375 15.48765625 4.4921875 16.3828125 C4.20860121 21.62915878 3.71419108 26.79487859 3 32 C2.01 32 1.02 32 0 32 C0 21.44 0 10.88 0 0 Z " fill="#D47C2A" transform="translate(197,218)"/>
<path d="M0 0 C1.65 0 3.3 0 5 0 C5 0.66 5 1.32 5 2 C4.01 2 3.02 2 2 2 C2.33 12.56 2.66 23.12 3 34 C4.32 34 5.64 34 7 34 C7 34.66 7 35.32 7 36 C7.99 36 8.98 36 10 36 C10 36.66 10 37.32 10 38 C11.32 38 12.64 38 14 38 C14 38.66 14 39.32 14 40 C10.7 40 7.4 40 4 40 C4.33 38.68 4.66 37.36 5 36 C3.68 36 2.36 36 1 36 C-0.53297297 32.93405406 -0.12131455 29.72888147 -0.09765625 26.3671875 C-0.0962413 25.61535187 -0.09482635 24.86351624 -0.09336853 24.08889771 C-0.08776465 21.6842249 -0.07521157 19.27964473 -0.0625 16.875 C-0.0574855 15.24609509 -0.0529225 13.61718873 -0.04882812 11.98828125 C-0.03779397 7.99215173 -0.02052679 3.99609158 0 0 Z " fill="#8A846C" transform="translate(36,92)"/>
<path d="M0 0 C1.32 0.33 2.64 0.66 4 1 C4 36.31 4 71.62 4 108 C3.67 108 3.34 108 3 108 C2.67 73.02 2.34 38.04 2 2 C1.34 2 0.68 2 0 2 C0 1.34 0 0.68 0 0 Z " fill="#2965A8" transform="translate(54,174)"/>
<path d="M0 0 C0.721875 0.144375 1.44375 0.28875 2.1875 0.4375 C3.5796875 0.7159375 3.5796875 0.7159375 5 1 C6.66666667 1.33333333 8.33333333 1.66666667 10 2 C10.33 3.98 10.66 5.96 11 8 C10.34 8 9.68 8 9 8 C9.33 8.99 9.66 9.98 10 11 C6 11 6 11 3 10 C3 10.66 3 11.32 3 12 C1.68 12 0.36 12 -1 12 C-1.33 10.68 -1.66 9.36 -2 8 C-0.35 8 1.3 8 3 8 C3 7.34 3 6.68 3 6 C0.525 5.01 0.525 5.01 -2 4 C-2 4.66 -2 5.32 -2 6 C-3.65 6 -5.3 6 -7 6 C-7 5.34 -7 4.68 -7 4 C-5.68 4 -4.36 4 -3 4 C-3 3.34 -3 2.68 -3 2 C-2.01 2 -1.02 2 0 2 C0 1.34 0 0.68 0 0 Z " fill="#DD9F40" transform="translate(11,66)"/>
<path d="M0 0 C1.32 0 2.64 0 4 0 C4 0.66 4 1.32 4 2 C4.66 2 5.32 2 6 2 C6 2.66 6 3.32 6 4 C5.34 4 4.68 4 4 4 C4.33 4.66 4.66 5.32 5 6 C5.99 6 6.98 6 8 6 C8 5.34 8 4.68 8 4 C8.66 4 9.32 4 10 4 C9.34 5.32 8.68 6.64 8 8 C6.39125 8.2165625 6.39125 8.2165625 4.75 8.4375 C2.08337051 8.83749442 -0.41399729 9.27591924 -3 10 C-3 8.68 -3 7.36 -3 6 C-5.31 6 -7.62 6 -10 6 C-10 5.34 -10 4.68 -10 4 C-10.66 4 -11.32 4 -12 4 C-12 3.34 -12 2.68 -12 2 C-8.04 2 -4.08 2 0 2 C0 1.34 0 0.68 0 0 Z " fill="#FAAA2C" transform="translate(140,36)"/>
<path d="M0 0 C4 0 4 0 6 1 C5 4 5 4 2 6 C1.01 6 0.02 6 -1 6 C-1 6.66 -1 7.32 -1 8 C-0.34 8.33 0.32 8.66 1 9 C0.01 9.99 -0.98 10.98 -2 12 C-2.66 12 -3.32 12 -4 12 C-4 12.66 -4 13.32 -4 14 C-4.66 14 -5.32 14 -6 14 C-6 13.34 -6 12.68 -6 12 C-6.66 12 -7.32 12 -8 12 C-8 12.66 -8 13.32 -8 14 C-9.32 14 -10.64 14 -12 14 C-12 13.34 -12 12.68 -12 12 C-12.66 12 -13.32 12 -14 12 C-14 11.34 -14 10.68 -14 10 C-12.68 10 -11.36 10 -10 10 C-10 9.34 -10 8.68 -10 8 C-9.01 8 -8.02 8 -7 8 C-7 7.34 -7 6.68 -7 6 C-5.02 5.34 -3.04 4.68 -1 4 C-0.67 2.68 -0.34 1.36 0 0 Z " fill="#F3A735" transform="translate(180,318)"/>
<path d="M0 0 C5.94 0.99 5.94 0.99 12 2 C12 13.88 12 25.76 12 38 C11.34 38 10.68 38 10 38 C10 27.44 10 16.88 10 6 C9.01 6 8.02 6 7 6 C7 5.34 7 4.68 7 4 C5.68 4 4.36 4 3 4 C3 3.34 3 2.68 3 2 C2.01 2 1.02 2 0 2 C0 1.34 0 0.68 0 0 Z " fill="#95836B" transform="translate(208,262)"/>
<path d="M0 0 C1.32 0 2.64 0 4 0 C3.34 2.64 2.68 5.28 2 8 C1.01 8 0.02 8 -1 8 C-1 8.66 -1 9.32 -1 10 C-0.01 10.33 0.98 10.66 2 11 C0.68 11.33 -0.64 11.66 -2 12 C-2 11.34 -2 10.68 -2 10 C-2.598125 9.855625 -3.19625 9.71125 -3.8125 9.5625 C-5.56150404 9.1127561 -7.28677023 8.57107659 -9 8 C-9 7.34 -9 6.68 -9 6 C-10.32 6 -11.64 6 -13 6 C-13 5.34 -13 4.68 -13 4 C-13.99 4 -14.98 4 -16 4 C-16 3.34 -16 2.68 -16 2 C-14.35 2 -12.7 2 -11 2 C-11 2.66 -11 3.32 -11 4 C-8.03 4 -5.06 4 -2 4 C-2 3.34 -2 2.68 -2 2 C-1.34 2 -0.68 2 0 2 C0 1.34 0 0.68 0 0 Z " fill="#D9A03E" transform="translate(112,196)"/>
<path d="M0 0 C1.32 1.32 2.64 2.64 4 4 C3.86109398 8.25025618 3.71268006 12.50012842 3.5625 16.75 C3.52318359 17.9565625 3.48386719 19.163125 3.44335938 20.40625 C3.40146484 21.56640625 3.35957031 22.7265625 3.31640625 23.921875 C3.27974854 24.99018555 3.24309082 26.05849609 3.20532227 27.15917969 C3.03013091 29.58311152 2.68801513 31.67886712 2 34 C1.34 34 0.68 34 0 34 C0 22.78 0 11.56 0 0 Z " fill="#E28B27" transform="translate(161,200)"/>
<path d="M0 0 C-0.33 1.32 -0.66 2.64 -1 4 C-0.34 4 0.32 4 1 4 C1 3.34 1 2.68 1 2 C1.66 2 2.32 2 3 2 C3 1.34 3 0.68 3 0 C4.98 0 6.96 0 9 0 C9 3.3 9 6.6 9 10 C7.35 10 5.7 10 4 10 C4 9.34 4 8.68 4 8 C3.01 8 2.02 8 1 8 C1 7.34 1 6.68 1 6 C-0.32 6 -1.64 6 -3 6 C-3 5.34 -3 4.68 -3 4 C-3.99 4 -4.98 4 -6 4 C-6 3.34 -6 2.68 -6 2 C-2.25 0 -2.25 0 0 0 Z " fill="#FCA82D" transform="translate(79,294)"/>
<path d="M0 0 C0.66 0 1.32 0 2 0 C2.33 1.32 2.66 2.64 3 4 C3.99 3.34 4.98 2.68 6 2 C7.32 2 8.64 2 10 2 C10 3.32 10 4.64 10 6 C8.68 6 7.36 6 6 6 C6 6.66 6 7.32 6 8 C4.68 8 3.36 8 2 8 C2 8.66 2 9.32 2 10 C-3 9 -3 9 -8 4 C-7.34 4 -6.68 4 -6 4 C-6 3.34 -6 2.68 -6 2 C-4.02 2 -2.04 2 0 2 C0 1.34 0 0.68 0 0 Z " fill="#FBA92A" transform="translate(54,162)"/>
<path d="M0 0 C1.32 0 2.64 0 4 0 C4 0.66 4 1.32 4 2 C4.99 2 5.98 2 7 2 C7 2.66 7 3.32 7 4 C7.99 4 8.98 4 10 4 C10 4.66 10 5.32 10 6 C11.32 6 12.64 6 14 6 C14 6.66 14 7.32 14 8 C14.99 8 15.98 8 17 8 C17 8.66 17 9.32 17 10 C15.3745692 9.85904936 13.74965949 9.71207913 12.125 9.5625 C11.22007812 9.48128906 10.31515625 9.40007812 9.3828125 9.31640625 C7 9 7 9 5 8 C5 7.34 5 6.68 5 6 C3.02 6.66 1.04 7.32 -1 8 C-1 7.34 -1 6.68 -1 6 C-2.32 6 -3.64 6 -5 6 C-5 6.66 -5 7.32 -5 8 C-5.66 8 -6.32 8 -7 8 C-7 7.34 -7 6.68 -7 6 C-7.66 6 -8.32 6 -9 6 C-9 5.34 -9 4.68 -9 4 C-5.04 4 -1.08 4 3 4 C3 3.34 3 2.68 3 2 C2.01 2 1.02 2 0 2 C0 1.34 0 0.68 0 0 Z " fill="#CF9B4A" transform="translate(141,184)"/>
<path d="M0 0 C1.98 0.66 3.96 1.32 6 2 C6 2.66 6 3.32 6 4 C7.32 4 8.64 4 10 4 C10 4.66 10 5.32 10 6 C10.99 6 11.98 6 13 6 C13 6.66 13 7.32 13 8 C13.99 8 14.98 8 16 8 C16 8.66 16 9.32 16 10 C17.32 10 18.64 10 20 10 C20 10.66 20 11.32 20 12 C20.99 12.33 21.98 12.66 23 13 C21.68 13.33 20.36 13.66 19 14 C19 13.34 19 12.68 19 12 C16.69 12.66 14.38 13.32 12 14 C12 12.68 12 11.36 12 10 C10.02 10 8.04 10 6 10 C6 9.34 6 8.68 6 8 C6.66 7.67 7.32 7.34 8 7 C6.68 6.67 5.36 6.34 4 6 C4 6.66 4 7.32 4 8 C3.34 8 2.68 8 2 8 C1.34 5.36 0.68 2.72 0 0 Z " fill="#B4945B" transform="translate(80,324)"/>
<path d="M0 0 C0.66 0 1.32 0 2 0 C2 1.98 2 3.96 2 6 C1.34 6 0.68 6 0 6 C0.33 7.32 0.66 8.64 1 10 C2.98 10.66 4.96 11.32 7 12 C8.65 13.98 10.3 15.96 12 18 C10.68 18 9.36 18 8 18 C8 17.34 8 16.68 8 16 C7.401875 15.855625 6.80375 15.71125 6.1875 15.5625 C4.43849596 15.1127561 2.71322977 14.57107659 1 14 C1 13.34 1 12.68 1 12 C-0.32 11.67 -1.64 11.34 -3 11 C-3.66 9.35 -4.32 7.7 -5 6 C-5.99 6 -6.98 6 -8 6 C-8 5.34 -8 4.68 -8 4 C-6.02 4 -4.04 4 -2 4 C-2 3.34 -2 2.68 -2 2 C-1.34 2 -0.68 2 0 2 C0 1.34 0 0.68 0 0 Z " fill="#F3A732" transform="translate(228,186)"/>
<path d="M0 0 C1.65 0 3.3 0 5 0 C5 0.66 5 1.32 5 2 C2.69 2.66 0.38 3.32 -2 4 C-2 4.66 -2 5.32 -2 6 C-3.32 6 -4.64 6 -6 6 C-6 6.66 -6 7.32 -6 8 C-6.99 8 -7.98 8 -9 8 C-9 8.66 -9 9.32 -9 10 C-9.99 10 -10.98 10 -12 10 C-12 10.66 -12 11.32 -12 12 C-13.32 12 -14.64 12 -16 12 C-16 12.66 -16 13.32 -16 14 C-17.98 14.66 -19.96 15.32 -22 16 C-22 15.34 -22 14.68 -22 14 C-21.34 14 -20.68 14 -20 14 C-20 12.02 -20 10.04 -20 8 C-19.34 8 -18.68 8 -18 8 C-18 8.66 -18 9.32 -18 10 C-16.35 10 -14.7 10 -13 10 C-13.33 8.68 -13.66 7.36 -14 6 C-12.02 6 -10.04 6 -8 6 C-7.67 5.34 -7.34 4.68 -7 4 C-5.68 4 -4.36 4 -3 4 C-3 3.34 -3 2.68 -3 2 C-2.01 2 -1.02 2 0 2 C0 1.34 0 0.68 0 0 Z " fill="#A38F62" transform="translate(166,368)"/>
<path d="M0 0 C1.98 0 3.96 0 6 0 C6 0.66 6 1.32 6 2 C7.98 2 9.96 2 12 2 C12 2.66 12 3.32 12 4 C11.01 4 10.02 4 9 4 C9 4.66 9 5.32 9 6 C7.68 6 6.36 6 5 6 C5 6.66 5 7.32 5 8 C4.34 8 3.68 8 3 8 C3 8.66 3 9.32 3 10 C0.09399739 11.25664978 -1.79604584 12 -5 12 C-4.67 10.68 -4.34 9.36 -4 8 C-2.68 8 -1.36 8 0 8 C0 7.34 0 6.68 0 6 C-0.66 6 -1.32 6 -2 6 C-2 5.34 -2 4.68 -2 4 C-1.01 4 -0.02 4 1 4 C1 4.66 1 5.32 1 6 C1.99 6 2.98 6 4 6 C4 5.34 4 4.68 4 4 C3.34 4 2.68 4 2 4 C2 3.34 2 2.68 2 2 C1.34 2 0.68 2 0 2 C0 1.34 0 0.68 0 0 Z " fill="#CA9B4A" transform="translate(214,334)"/>
<path d="M0 0 C0 0.66 0 1.32 0 2 C1.98 2.66 3.96 3.32 6 4 C6 4.66 6 5.32 6 6 C4.68 7.32 3.36 8.64 2 10 C1.34 10 0.68 10 0 10 C0 9.34 0 8.68 0 8 C-1.98 8 -3.96 8 -6 8 C-8 5 -8 5 -8 2 C-4.91190305 0.23537317 -3.76687864 0 0 0 Z " fill="#E4A33B" transform="translate(52,306)"/>
<path d="M0 0 C1.65 0 3.3 0 5 0 C5 0.66 5 1.32 5 2 C7.64 2.66 10.28 3.32 13 4 C13 4.66 13 5.32 13 6 C13.598125 5.67 14.19625 5.34 14.8125 5 C17 4 17 4 20 4 C20.66 6.64 21.32 9.28 22 12 C20.68 12 19.36 12 18 12 C18 11.34 18 10.68 18 10 C16.68 10 15.36 10 14 10 C14 9.34 14 8.68 14 8 C12.35 8 10.7 8 9 8 C9 7.34 9 6.68 9 6 C8.34 6 7.68 6 7 6 C7 5.34 7 4.68 7 4 C6.01 4 5.02 4 4 4 C4 3.34 4 2.68 4 2 C2.68 1.67 1.36 1.34 0 1 C0 0.67 0 0.34 0 0 Z " fill="#A28B5D" transform="translate(170,66)"/>
<path d="M0 0 C0.33 0 0.66 0 1 0 C1 4.62 1 9.24 1 14 C2.65 14 4.3 14 6 14 C6 13.34 6 12.68 6 12 C6.66 12 7.32 12 8 12 C8 11.34 8 10.68 8 10 C8.66 10 9.32 10 10 10 C10 11.32 10 12.64 10 14 C9.34 14 8.68 14 8 14 C9.79819816 17.4260261 9.79819816 17.4260261 14 18 C14.33 19.32 14.66 20.64 15 22 C12.61435923 21.42415568 10.33317216 20.77772405 8 20 C8 19.34 8 18.68 8 18 C6.68 18 5.36 18 4 18 C4 17.34 4 16.68 4 16 C2.68 16 1.36 16 0 16 C-1.30267176 10.49983036 -0.71033431 5.52967941 0 0 Z " fill="#AB9253" transform="translate(58,274)"/>
<path d="M0 0 C1.32 0.33 2.64 0.66 4 1 C0 4 0 4 -2 4 C-2 13.9 -2 23.8 -2 34 C-3.65 33.67 -5.3 33.34 -7 33 C-5.515 32.505 -5.515 32.505 -4 32 C-4.00523682 31.16227051 -4.01047363 30.32454102 -4.01586914 29.46142578 C-4.03290014 26.35661064 -4.04544482 23.25181929 -4.05493164 20.14697266 C-4.06244036 18.14093449 -4.0751447 16.13491798 -4.08789062 14.12890625 C-4.09111328 12.87207031 -4.09433594 11.61523438 -4.09765625 10.3203125 C-4.10289307 9.15773926 -4.10812988 7.99516602 -4.11352539 6.79736328 C-4 4 -4 4 -3 2 C-2.01 2 -1.02 2 0 2 C0 1.34 0 0.68 0 0 Z " fill="#727578" transform="translate(61,102)"/>
<path d="M0 0 C1.98 0 3.96 0 6 0 C6 0.66 6 1.32 6 2 C6.99 2 7.98 2 9 2 C9 2.66 9 3.32 9 4 C10.32 4 11.64 4 13 4 C13 4.66 13 5.32 13 6 C14.98 6.66 16.96 7.32 19 8 C19 8.66 19 9.32 19 10 C20.32 10 21.64 10 23 10 C23 10.66 23 11.32 23 12 C19.7 12 16.4 12 13 12 C13.33 11.34 13.66 10.68 14 10 C11.525 9.01 11.525 9.01 9 8 C9 7.01 9 6.02 9 5 C8.01 5.33 7.02 5.66 6 6 C5.67 4.68 5.34 3.36 5 2 C3.35 2 1.7 2 0 2 C0 1.34 0 0.68 0 0 Z " fill="#B28F5A" transform="translate(125,0)"/>
<path d="M0 0 C1.98 0 3.96 0 6 0 C6 0.66 6 1.32 6 2 C5.01 2 4.02 2 3 2 C3 2.66 3 3.32 3 4 C2.01 4 1.02 4 0 4 C0 4.66 0 5.32 0 6 C-2.31 6.66 -4.62 7.32 -7 8 C-7 8.66 -7 9.32 -7 10 C-8.32 10 -9.64 10 -11 10 C-11 9.34 -11 8.68 -11 8 C-11.99 8 -12.98 8 -14 8 C-14 7.34 -14 6.68 -14 6 C-15.32 5.67 -16.64 5.34 -18 5 C-18 4.67 -18 4.34 -18 4 C-15.03 4 -12.06 4 -9 4 C-9 4.66 -9 5.32 -9 6 C-8.01 6 -7.02 6 -6 6 C-6 5.34 -6 4.68 -6 4 C-4.35 4 -2.7 4 -1 4 C-0.67 2.68 -0.34 1.36 0 0 Z " fill="#9C8C63" transform="translate(137,384)"/>
<path d="M0 0 C0.66 0 1.32 0 2 0 C2 0.66 2 1.32 2 2 C2.495 1.814375 2.99 1.62875 3.5 1.4375 C7.15081689 0.79860704 10.33964724 1.45094709 14 2 C14 2.66 14 3.32 14 4 C12.68 4 11.36 4 10 4 C10 4.66 10 5.32 10 6 C8.68 6 7.36 6 6 6 C6 6.66 6 7.32 6 8 C5.01 8 4.02 8 3 8 C3 8.66 3 9.32 3 10 C2.01 10 1.02 10 0 10 C0 10.66 0 11.32 0 12 C-1.32 11.67 -2.64 11.34 -4 11 C-3.67 10.01 -3.34 9.02 -3 8 C-1.35 8 0.3 8 2 8 C2 6.68 2 5.36 2 4 C1.34 4 0.68 4 0 4 C0 2.68 0 1.36 0 0 Z " fill="#F4A932" transform="translate(230,324)"/>
<path d="M0 0 C1.98 0 3.96 0 6 0 C6 0.99 6 1.98 6 3 C7.98 2.67 9.96 2.34 12 2 C12 3.32 12 4.64 12 6 C12.99 6 13.98 6 15 6 C15 6.66 15 7.32 15 8 C16.32 8 17.64 8 19 8 C19.33 9.32 19.66 10.64 20 12 C20.66 12 21.32 12 22 12 C22 12.66 22 13.32 22 14 C21.01 14 20.02 14 19 14 C19 13.34 19 12.68 19 12 C17.02 11.34 15.04 10.68 13 10 C13 9.34 13 8.68 13 8 C12.01 8 11.02 8 10 8 C10 7.34 10 6.68 10 6 C8.68 6 7.36 6 6 6 C6 5.34 6 4.68 6 4 C5.01 4 4.02 4 3 4 C3 3.34 3 2.68 3 2 C2.01 2 1.02 2 0 2 C0 1.34 0 0.68 0 0 Z " fill="#C29B48" transform="translate(96,374)"/>
<path d="M0 0 C0.66 0 1.32 0 2 0 C2 0.66 2 1.32 2 2 C3.32 2 4.64 2 6 2 C6 2.66 6 3.32 6 4 C4.68 4 3.36 4 2 4 C2 4.66 2 5.32 2 6 C3.32 6 4.64 6 6 6 C6 6.66 6 7.32 6 8 C5.34 8 4.68 8 4 8 C4.33 9.32 4.66 10.64 5 12 C3.68 12 2.36 12 1 12 C1 11.34 1 10.68 1 10 C0.01 10 -0.98 10 -2 10 C-2 9.34 -2 8.68 -2 8 C-2.99 8 -3.98 8 -5 8 C-5 7.34 -5 6.68 -5 6 C-6.32 5.67 -7.64 5.34 -9 5 C-7.68 4.67 -6.36 4.34 -5 4 C-4.01 4.66 -3.02 5.32 -2 6 C-2 5.34 -2 4.68 -2 4 C-1.34 3.34 -0.68 2.68 0 2 C0 1.34 0 0.68 0 0 Z " fill="#C7984B" transform="translate(214,82)"/>
<path d="M0 0 C1.32 0 2.64 0 4 0 C4 0.66 4 1.32 4 2 C4.66 2 5.32 2 6 2 C6 2.66 6 3.32 6 4 C7.32 4 8.64 4 10 4 C10 4.66 10 5.32 10 6 C10.99 6 11.98 6 13 6 C13 6.66 13 7.32 13 8 C14.32 8 15.64 8 17 8 C17 8.66 17 9.32 17 10 C13.7 10 10.4 10 7 10 C7 9.34 7 8.68 7 8 C7.66 8 8.32 8 9 8 C9 7.34 9 6.68 9 6 C7.02 6 5.04 6 3 6 C3 6.66 3 7.32 3 8 C2.01 8 1.02 8 0 8 C0 5.36 0 2.72 0 0 Z " fill="#BC9551" transform="translate(193,38)"/>
<path d="M0 0 C2.64 0 5.28 0 8 0 C8 0.66 8 1.32 8 2 C9.32 2 10.64 2 12 2 C12 2.66 12 3.32 12 4 C13.32 4 14.64 4 16 4 C16 4.66 16 5.32 16 6 C14.68 6 13.36 6 12 6 C12 6.66 12 7.32 12 8 C11.34 8 10.68 8 10 8 C10 7.34 10 6.68 10 6 C8.02 6 6.04 6 4 6 C4 5.34 4 4.68 4 4 C2.68 4 1.36 4 0 4 C0 2.68 0 1.36 0 0 Z " fill="#E7A23B" transform="translate(2,186)"/>
<path d="M0 0 C1.65 0 3.3 0 5 0 C5 0.66 5 1.32 5 2 C4.01 2 3.02 2 2 2 C2 2.66 2 3.32 2 4 C1.01 4 0.02 4 -1 4 C-1 4.66 -1 5.32 -1 6 C-2.32 6 -3.64 6 -5 6 C-5 6.66 -5 7.32 -5 8 C-5.99 8 -6.98 8 -8 8 C-8 8.66 -8 9.32 -8 10 C-8.99 10 -9.98 10 -11 10 C-11 9.34 -11 8.68 -11 8 C-10.34 8 -9.68 8 -9 8 C-9 7.34 -9 6.68 -9 6 C-9.66 6 -10.32 6 -11 6 C-11 5.34 -11 4.68 -11 4 C-10.34 4 -9.68 4 -9 4 C-9 3.34 -9 2.68 -9 2 C-4.545 1.505 -4.545 1.505 0 1 C0 0.67 0 0.34 0 0 Z " fill="#C8994D" transform="translate(101,114)"/>
<path d="M0 0 C1.98 0 3.96 0 6 0 C6.66 0.66 7.32 1.32 8 2 C8 1.34 8 0.68 8 0 C9.65 0 11.3 0 13 0 C13 1.98 13 3.96 13 6 C13.66 6 14.32 6 15 6 C15 6.66 15 7.32 15 8 C15.99 8 16.98 8 18 8 C18 8.66 18 9.32 18 10 C16.68 10 15.36 10 14 10 C14 9.34 14 8.68 14 8 C13.01 8 12.02 8 11 8 C11 7.34 11 6.68 11 6 C10.01 6 9.02 6 8 6 C8 5.34 8 4.68 8 4 C6.35 4 4.7 4 3 4 C3 3.34 3 2.68 3 2 C2.01 2 1.02 2 0 2 C0 1.34 0 0.68 0 0 Z " fill="#A2895A" transform="translate(148,228)"/>
<path d="M0 0 C1.65 0 3.3 0 5 0 C5.99 0.99 6.98 1.98 8 3 C9.32 3.33 10.64 3.66 12 4 C12 3.34 12 2.68 12 2 C13.98 2 15.96 2 18 2 C18 3.98 18 5.96 18 8 C16.68 8 15.36 8 14 8 C13.67 7.67 13.34 7.34 13 7 C10.69 6.67 8.38 6.34 6 6 C6 5.34 6 4.68 6 4 C4.02 3.34 2.04 2.68 0 2 C0 1.34 0 0.68 0 0 Z " fill="#F4AA34" transform="translate(44,168)"/>
<path d="M0 0 C0.99 0 1.98 0 3 0 C3 0.66 3 1.32 3 2 C2.01 2.495 2.01 2.495 1 3 C1.99 3.33 2.98 3.66 4 4 C3.67 5.32 3.34 6.64 3 8 C2.01 8 1.02 8 0 8 C0 8.66 0 9.32 0 10 C-0.99 10 -1.98 10 -3 10 C-3 9.34 -3 8.68 -3 8 C-5.31 8 -7.62 8 -10 8 C-10 7.34 -10 6.68 -10 6 C-9.01 6 -8.02 6 -7 6 C-7 5.34 -7 4.68 -7 4 C-5.68 4 -4.36 4 -3 4 C-3 3.34 -3 2.68 -3 2 C-2.01 2 -1.02 2 0 2 C0 1.34 0 0.68 0 0 Z " fill="#BB964D" transform="translate(75,94)"/>
<path d="M0 0 C0.33 0.66 0.66 1.32 1 2 C2.98 2 4.96 2 7 2 C7 2.66 7 3.32 7 4 C5.68 4 4.36 4 3 4 C3 4.66 3 5.32 3 6 C1.02 6.66 -0.96 7.32 -3 8 C-3 8.66 -3 9.32 -3 10 C-4.32 10 -5.64 10 -7 10 C-7 10.66 -7 11.32 -7 12 C-8.32 12 -9.64 12 -11 12 C-11 10.68 -11 9.36 -11 8 C-10.01 8 -9.02 8 -8 8 C-7.67 7.34 -7.34 6.68 -7 6 C-5.35 6 -3.7 6 -2 6 C-1.34 4.02 -0.68 2.04 0 0 Z " fill="#B39059" transform="translate(183,290)"/>
<path d="M0 0 C1.32 0 2.64 0 4 0 C4 0.66 4 1.32 4 2 C3.01 2 2.02 2 1 2 C1 3.32 1 4.64 1 6 C1.99 6 2.98 6 4 6 C4 6.66 4 7.32 4 8 C3.01 8 2.02 8 1 8 C1 17.9 1 27.8 1 38 C-0.32 38.66 -1.64 39.32 -3 40 C-3.33 39.34 -3.66 38.68 -4 38 C-3.34 38 -2.68 38 -2 38 C-1.13408017 33.44544661 -0.81329263 29.04616545 -0.68359375 24.4140625 C-0.66281265 23.71227875 -0.64203156 23.010495 -0.62062073 22.28744507 C-0.55573676 20.06672042 -0.4965277 17.84588724 -0.4375 15.625 C-0.39425646 14.11066629 -0.3506404 12.59634317 -0.30664062 11.08203125 C-0.20011914 7.38813345 -0.09868323 3.69411646 0 0 Z " fill="#B18354" transform="translate(197,250)"/>
<path d="M0 0 C2.97 0 5.94 0 9 0 C9.33 1.32 9.66 2.64 10 4 C6.91190305 5.76462683 5.76687864 6 2 6 C1.67 5.34 1.34 4.68 1 4 C-0.1446875 4.495 -0.1446875 4.495 -1.3125 5 C-4 6 -4 6 -7 6 C-7 5.34 -7 4.68 -7 4 C-6.01 4 -5.02 4 -4 4 C-4 3.34 -4 2.68 -4 2 C-2.68 2 -1.36 2 0 2 C0 1.34 0 0.68 0 0 Z " fill="#F6AC2D" transform="translate(86,88)"/>
<path d="M0 0 C0 0.66 0 1.32 0 2 C-1.32 2 -2.64 2 -4 2 C-4 2.66 -4 3.32 -4 4 C-3.34 4 -2.68 4 -2 4 C-2 6 -2 8 -2 10 C-2.99 10 -3.98 10 -5 10 C-5 9.34 -5 8.68 -5 8 C-6.32 8 -7.64 8 -9 8 C-9 7.34 -9 6.68 -9 6 C-9.99 6 -10.98 6 -12 6 C-12 5.01 -12 4.02 -12 3 C-4.71428571 -0.42857143 -4.71428571 -0.42857143 0 0 Z " fill="#F4AA31" transform="translate(38,154)"/>
<path d="M0 0 C1.65 0 3.3 0 5 0 C4.49287967 3.71888239 3.88391785 6.73454239 2 10 C0.35 10 -1.3 10 -3 10 C-3 7.36 -3 4.72 -3 2 C-2.01 2 -1.02 2 0 2 C0 1.34 0 0.68 0 0 Z " fill="#F6AA2F" transform="translate(191,282)"/>
<path d="M0 0 C1.32 0 2.64 0 4 0 C4 0.66 4 1.32 4 2 C4.99 2 5.98 2 7 2 C7 2.66 7 3.32 7 4 C8.32 4 9.64 4 11 4 C11 4.66 11 5.32 11 6 C11.99 6 12.98 6 14 6 C14 6.66 14 7.32 14 8 C12.68 8 11.36 8 10 8 C10 8.66 10 9.32 10 10 C8.68 10 7.36 10 6 10 C6 8.68 6 7.36 6 6 C4.68 6 3.36 6 2 6 C2 4.68 2 3.36 2 2 C1.34 2 0.68 2 0 2 C0 1.34 0 0.68 0 0 Z " fill="#C3974D" transform="translate(214,226)"/>
<path d="M0 0 C1.32 0.33 2.64 0.66 4 1 C3.01 1.33 2.02 1.66 1 2 C1.33 3.98 1.66 5.96 2 8 C-0.31 7.34 -2.62 6.68 -5 6 C-5 6.66 -5 7.32 -5 8 C-5.66 8 -6.32 8 -7 8 C-7.33 9.32 -7.66 10.64 -8 12 C-8 11.34 -8 10.68 -8 10 C-9.98 10 -11.96 10 -14 10 C-13.67 9.34 -13.34 8.68 -13 8 C-12.01 8 -11.02 8 -10 8 C-10 7.34 -10 6.68 -10 6 C-7.35261084 4.5393715 -6.10551666 4 -3 4 C-3 3.34 -3 2.68 -3 2 C-2.01 2 -1.02 2 0 2 C0 1.34 0 0.68 0 0 Z " fill="#C09552" transform="translate(46,46)"/>
<path d="M0 0 C0.33 0 0.66 0 1 0 C1 5.94 1 11.88 1 18 C-0.32 18 -1.64 18 -3 18 C-3 17.34 -3 16.68 -3 16 C-3.99 16 -4.98 16 -6 16 C-6 15.34 -6 14.68 -6 14 C-7.32 14 -8.64 14 -10 14 C-10 13.34 -10 12.68 -10 12 C-10.99 12 -11.98 12 -13 12 C-13 11.34 -13 10.68 -13 10 C-12.1646875 10.2165625 -12.1646875 10.2165625 -11.3125 10.4375 C-7.81706319 11.28774139 -4.6090264 12 -1 12 C-0.67 8.04 -0.34 4.08 0 0 Z " fill="#B08C58" transform="translate(253,194)"/>
<path d="M0 0 C0.99 0 1.98 0 3 0 C3.99 1.32 4.98 2.64 6 4 C5.34 4 4.68 4 4 4 C4 4.66 4 5.32 4 6 C3.01 6 2.02 6 1 6 C1 6.66 1 7.32 1 8 C1.99 8 2.98 8 4 8 C4 8.66 4 9.32 4 10 C4.66 10 5.32 10 6 10 C6 10.66 6 11.32 6 12 C3.36 12 0.72 12 -2 12 C-2 11.34 -2 10.68 -2 10 C-1.34 10 -0.68 10 0 10 C0 9.34 0 8.68 0 8 C-1.32 8 -2.64 8 -4 8 C-4 7.34 -4 6.68 -4 6 C-3.01 5.67 -2.02 5.34 -1 5 C-0.67 3.35 -0.34 1.7 0 0 Z " fill="#E5A23D" transform="translate(50,132)"/>
<path d="M0 0 C0.33 0 0.66 0 1 0 C1 1.65 1 3.3 1 5 C1.66 5 2.32 5 3 5 C3 4.34 3 3.68 3 3 C4.98 3 6.96 3 9 3 C9 3.66 9 4.32 9 5 C10.32 5 11.64 5 13 5 C13 5.66 13 6.32 13 7 C8.71 7 4.42 7 0 7 C0 6.34 0 5.68 0 5 C-0.598125 4.855625 -1.19625 4.71125 -1.8125 4.5625 C-3.56150404 4.1127561 -5.28677023 3.57107659 -7 3 C-7 2.34 -7 1.68 -7 1 C-4.61435923 1.57584432 -2.33317216 2.22227595 0 3 C0 2.01 0 1.02 0 0 Z " fill="#CA9A4C" transform="translate(47,341)"/>
<path d="M0 0 C1.32 0 2.64 0 4 0 C4 0.66 4 1.32 4 2 C5.32 2 6.64 2 8 2 C8 2.66 8 3.32 8 4 C6.68 4 5.36 4 4 4 C4 4.66 4 5.32 4 6 C3.01 6 2.02 6 1 6 C1 6.66 1 7.32 1 8 C0.01 8 -0.98 8 -2 8 C-2 8.66 -2 9.32 -2 10 C-2.99 10 -3.98 10 -5 10 C-4.67 8.68 -4.34 7.36 -4 6 C-3.34 6 -2.68 6 -2 6 C-2 4.68 -2 3.36 -2 2 C-1.34 2 -0.68 2 0 2 C0 1.34 0 0.68 0 0 Z " fill="#BA9450" transform="translate(194,348)"/>
<path d="M0 0 C3.63 0.66 7.26 1.32 11 2 C11 2.66 11 3.32 11 4 C12.32 4 13.64 4 15 4 C15 5.65 15 7.3 15 9 C15.66 9.33 16.32 9.66 17 10 C15.68 10 14.36 10 13 10 C13 9.34 13 8.68 13 8 C12.01 8 11.02 8 10 8 C10 7.34 10 6.68 10 6 C9.01 6 8.02 6 7 6 C7 5.34 7 4.68 7 4 C5.68 4 4.36 4 3 4 C3 3.34 3 2.68 3 2 C2.01 2 1.02 2 0 2 C0 1.34 0 0.68 0 0 Z " fill="#B39352" transform="translate(143,50)"/>
<path d="M0 0 C2.64 0 5.28 0 8 0 C8 0.66 8 1.32 8 2 C6.68 2 5.36 2 4 2 C4 2.66 4 3.32 4 4 C3.01 4 2.02 4 1 4 C1 4.66 1 5.32 1 6 C0.01 6 -0.98 6 -2 6 C-2 6.66 -2 7.32 -2 8 C-2.99 8 -3.98 8 -5 8 C-5 8.66 -5 9.32 -5 10 C-6.32 10 -7.64 10 -9 10 C-8.67 8.68 -8.34 7.36 -8 6 C-6.68 6 -5.36 6 -4 6 C-4 5.34 -4 4.68 -4 4 C-2.68 4 -1.36 4 0 4 C0 2.68 0 1.36 0 0 Z " fill="#978664" transform="translate(74,68)"/>
<path d="M0 0 C3.63 0 7.26 0 11 0 C11 0.66 11 1.32 11 2 C10.01 2 9.02 2 8 2 C8 2.66 8 3.32 8 4 C6.68 4 5.36 4 4 4 C4 4.66 4 5.32 4 6 C3.01 6 2.02 6 1 6 C1 6.66 1 7.32 1 8 C0.01 8 -0.98 8 -2 8 C-2 7.34 -2 6.68 -2 6 C-1.34 6 -0.68 6 0 6 C0 4.02 0 2.04 0 0 Z " fill="#BA9450" transform="translate(88,58)"/>
<path d="M0 0 C1.32 0 2.64 0 4 0 C4 0.66 4 1.32 4 2 C6.31 2 8.62 2 11 2 C11 3.32 11 4.64 11 6 C11.99 6.33 12.98 6.66 14 7 C14 7.66 14 8.32 14 9 C14.66 9.33 15.32 9.66 16 10 C15.01 10 14.02 10 13 10 C13 9.34 13 8.68 13 8 C12.01 8 11.02 8 10 8 C10 7.34 10 6.68 10 6 C8.68 6 7.36 6 6 6 C6 5.34 6 4.68 6 4 C5.01 4 4.02 4 3 4 C3 3.34 3 2.68 3 2 C2.34 2 1.68 2 1 2 C1 2.66 1 3.32 1 4 C0.01 4 -0.98 4 -2 4 C-2 3.34 -2 2.68 -2 2 C-1.34 2 -0.68 2 0 2 C0 1.34 0 0.68 0 0 Z " fill="#9C8662" transform="translate(126,40)"/>
<path d="M0 0 C0.66 0 1.32 0 2 0 C1.67 1.32 1.34 2.64 1 4 C1.99 4 2.98 4 4 4 C4 3.34 4 2.68 4 2 C4.66 2 5.32 2 6 2 C6 1.34 6 0.68 6 0 C6.66 0 7.32 0 8 0 C8 0.66 8 1.32 8 2 C9.98 2 11.96 2 14 2 C14 2.66 14 3.32 14 4 C13.40832031 4.06058594 12.81664063 4.12117188 12.20703125 4.18359375 C8.09021792 4.62012371 4.04455467 5.08671346 0 6 C0 5.34 0 4.68 0 4 C-1.32 4 -2.64 4 -4 4 C-4 3.34 -4 2.68 -4 2 C-2.68 2 -1.36 2 0 2 C0 1.34 0 0.68 0 0 Z " fill="#CD994F" transform="translate(78,360)"/>
<path d="M0 0 C-0.33 1.32 -0.66 2.64 -1 4 C-0.34 4 0.32 4 1 4 C1 3.34 1 2.68 1 2 C2.32 2 3.64 2 5 2 C5 2.66 5 3.32 5 4 C4.01 4 3.02 4 2 4 C2 4.66 2 5.32 2 6 C4.475 6.99 4.475 6.99 7 8 C7 8.66 7 9.32 7 10 C6.01 10 5.02 10 4 10 C4 9.34 4 8.68 4 8 C3.01 8 2.02 8 1 8 C1 7.34 1 6.68 1 6 C-0.32 6 -1.64 6 -3 6 C-3 5.34 -3 4.68 -3 4 C-3.99 4 -4.98 4 -6 4 C-6 3.34 -6 2.68 -6 2 C-2.25 0 -2.25 0 0 0 Z " fill="#AA8C5C" transform="translate(79,294)"/>
<path d="M0 0 C1.32 0 2.64 0 4 0 C4 0.99 4 1.98 4 3 C4.66 3.33 5.32 3.66 6 4 C6 4.66 6 5.32 6 6 C5.34 6 4.68 6 4 6 C4 6.66 4 7.32 4 8 C4.99 8 5.98 8 7 8 C7 8.66 7 9.32 7 10 C7.99 10.33 8.98 10.66 10 11 C8.68 11.33 7.36 11.66 6 12 C6 11.34 6 10.68 6 10 C5.01 10 4.02 10 3 10 C2.67 8.68 2.34 7.36 2 6 C1.34 6 0.68 6 0 6 C0 4.02 0 2.04 0 0 Z " fill="#CA9B4A" transform="translate(30,330)"/>
<path d="M0 0 C0.99 0 1.98 0 3 0 C3 0.66 3 1.32 3 2 C3.99 2 4.98 2 6 2 C5.67 2.99 5.34 3.98 5 5 C5.99 5.66 6.98 6.32 8 7 C6.35 7.33 4.7 7.66 3 8 C3 7.34 3 6.68 3 6 C1.68 6 0.36 6 -1 6 C-1 5.34 -1 4.68 -1 4 C-1.99 4 -2.98 4 -4 4 C-4 3.34 -4 2.68 -4 2 C-2.68 2 -1.36 2 0 2 C0 1.34 0 0.68 0 0 Z " fill="#B19255" transform="translate(142,220)"/>
<path d="M0 0 C2.97 0 5.94 0 9 0 C8.67 1.32 8.34 2.64 8 4 C8.99 4 9.98 4 11 4 C11.33 3.34 11.66 2.68 12 2 C12 3.65 12 5.3 12 7 C12.66 7.33 13.32 7.66 14 8 C12.68 8 11.36 8 10 8 C10 7.34 10 6.68 10 6 C9.01 6 8.02 6 7 6 C7 5.34 7 4.68 7 4 C6.01 4 5.02 4 4 4 C4 3.34 4 2.68 4 2 C2.68 2 1.36 2 0 2 C0 1.34 0 0.68 0 0 Z " fill="#9C8D5E" transform="translate(50,348)"/>
<path d="M0 0 C0.66 0.33 1.32 0.66 2 1 C1.01 2.485 1.01 2.485 0 4 C-0.66 4 -1.32 4 -2 4 C-2 4.66 -2 5.32 -2 6 C-2.99 6.495 -2.99 6.495 -4 7 C-4.33 7.99 -4.66 8.98 -5 10 C-6.32 10 -7.64 10 -9 10 C-9 9.34 -9 8.68 -9 8 C-9.66 8 -10.32 8 -11 8 C-11 7.34 -11 6.68 -11 6 C-9.68 6 -8.36 6 -7 6 C-7 5.34 -7 4.68 -7 4 C-6.01 4 -5.02 4 -4 4 C-4 3.34 -4 2.68 -4 2 C-2.68 1.34 -1.36 0.68 0 0 Z " fill="#A88D5C" transform="translate(177,322)"/>
<path d="M0 0 C0.66 0 1.32 0 2 0 C2.33 1.32 2.66 2.64 3 4 C4.98 4 6.96 4 9 4 C9 4.66 9 5.32 9 6 C9.66 6 10.32 6 11 6 C11 6.66 11 7.32 11 8 C7.7 8 4.4 8 1 8 C0.67 5.36 0.34 2.72 0 0 Z " fill="#EA9627" transform="translate(59,128)"/>
<path d="M0 0 C5.75 0.875 5.75 0.875 8 2 C8 2.66 8 3.32 8 4 C5.03 4 2.06 4 -1 4 C-1 4.66 -1 5.32 -1 6 C-2.65 6 -4.3 6 -6 6 C-6 5.34 -6 4.68 -6 4 C-5.01 4 -4.02 4 -3 4 C-3 3.34 -3 2.68 -3 2 C-2.01 2 -1.02 2 0 2 C0 1.34 0 0.68 0 0 Z " fill="#AE9056" transform="translate(28,56)"/>
<path d="M0 0 C0.99 0.33 1.98 0.66 3 1 C0.66666667 3.33333333 -1.66666667 5.66666667 -4 8 C-6.31 8 -8.62 8 -11 8 C-11 7.34 -11 6.68 -11 6 C-9.68 6 -8.36 6 -7 6 C-7 5.34 -7 4.68 -7 4 C-6.01 4 -5.02 4 -4 4 C-4 3.34 -4 2.68 -4 2 C-2.68 2 -1.36 2 0 2 C0 1.34 0 0.68 0 0 Z " fill="#A18B5F" transform="translate(74,30)"/>
<path d="M0 0 C0.66 0 1.32 0 2 0 C2 0.66 2 1.32 2 2 C2.99 2 3.98 2 5 2 C5 2.66 5 3.32 5 4 C5.5775 4.144375 6.155 4.28875 6.75 4.4375 C8.83333333 4.95833333 10.91666667 5.47916667 13 6 C13 6.66 13 7.32 13 8 C13.66 8 14.32 8 15 8 C15 8.66 15 9.32 15 10 C14.01 10 13.02 10 12 10 C12 9.34 12 8.68 12 8 C10.35 8 8.7 8 7 8 C7 7.34 7 6.68 7 6 C4.03 5.505 4.03 5.505 1 5 C0.67 3.35 0.34 1.7 0 0 Z " fill="#797F77" transform="translate(172,90)"/>
<path d="M0 0 C1.65 0 3.3 0 5 0 C5 0.66 5 1.32 5 2 C3.68 2 2.36 2 1 2 C1 2.66 1 3.32 1 4 C0.01 4 -0.98 4 -2 4 C-2 4.66 -2 5.32 -2 6 C-2.99 6 -3.98 6 -5 6 C-5 6.66 -5 7.32 -5 8 C-5.99 8 -6.98 8 -8 8 C-7.34 6.02 -6.68 4.04 -6 2 C-4.02 2 -2.04 2 0 2 C0 1.34 0 0.68 0 0 Z " fill="#88856B" transform="translate(115,46)"/>
<path d="M0 0 C1.32 0 2.64 0 4 0 C4 0.66 4 1.32 4 2 C4.99 2 5.98 2 7 2 C7 2.66 7 3.32 7 4 C8.32 4 9.64 4 11 4 C11 4.66 11 5.32 11 6 C11.99 6 12.98 6 14 6 C14 6.66 14 7.32 14 8 C12.68 8 11.36 8 10 8 C10 7.34 10 6.68 10 6 C8.68 6 7.36 6 6 6 C6 5.34 6 4.68 6 4 C4.02 4 2.04 4 0 4 C0 2.68 0 1.36 0 0 Z " fill="#958765" transform="translate(228,234)"/>
<path d="M0 0 C0 1.32 0 2.64 0 4 C-3 6 -3 6 -9 6 C-8.67 4.68 -8.34 3.36 -8 2 C-4.91190305 0.23537317 -3.76687864 0 0 0 Z " fill="#DE9F40" transform="translate(191,100)"/>
<path d="M0 0 C1.32 0.33 2.64 0.66 4 1 C-3 6 -3 6 -5 6 C-5 6.66 -5 7.32 -5 8 C-8.08809695 9.76462683 -9.23312136 10 -13 10 C-13 9.34 -13 8.68 -13 8 C-12.01 8 -11.02 8 -10 8 C-10 7.34 -10 6.68 -10 6 C-8.68 6 -7.36 6 -6 6 C-6 5.34 -6 4.68 -6 4 C-5.01 4 -4.02 4 -3 4 C-3 3.34 -3 2.68 -3 2 C-2.01 2 -1.02 2 0 2 C0 1.34 0 0.68 0 0 Z " fill="#6C7974" transform="translate(116,70)"/>
<path d="M0 0 C0.99 0 1.98 0 3 0 C3 0.66 3 1.32 3 2 C3.99 2 4.98 2 6 2 C6 2.66 6 3.32 6 4 C7.32 4 8.64 4 10 4 C10 4.66 10 5.32 10 6 C10.99 6 11.98 6 13 6 C13 6.66 13 7.32 13 8 C11.02 8 9.04 8 7 8 C6.34 6.68 5.68 5.36 5 4 C3.35 4 1.7 4 0 4 C0 2.68 0 1.36 0 0 Z " fill="#A88B5C" transform="translate(217,52)"/>
<path d="M0 0 C1.65 0 3.3 0 5 0 C5 1.32 5 2.64 5 4 C3.02 4 1.04 4 -1 4 C-1 4.66 -1 5.32 -1 6 C-2.32 6 -3.64 6 -5 6 C-4.67 4.68 -4.34 3.36 -4 2 C-2.68 2 -1.36 2 0 2 C0 1.34 0 0.68 0 0 Z " fill="#A08B5F" transform="translate(125,100)"/>
<path d="M0 0 C0.99 0 1.98 0 3 0 C3 0.66 3 1.32 3 2 C4.32 2 5.64 2 7 2 C7 2.66 7 3.32 7 4 C5.68 4 4.36 4 3 4 C3 4.66 3 5.32 3 6 C2.01 6 1.02 6 0 6 C0 6.66 0 7.32 0 8 C-0.99 7.67 -1.98 7.34 -3 7 C-2.67 5.35 -2.34 3.7 -2 2 C-1.34 2 -0.68 2 0 2 C0 1.34 0 0.68 0 0 Z " fill="#AB9056" transform="translate(44,84)"/>
<path d="M0 0 C0.99 0.33 1.98 0.66 3 1 C0.90157278 4.14764083 0.25311233 4.51286293 -3 6 C-3.99 6 -4.98 6 -6 6 C-6 7.32 -6 8.64 -6 10 C-6.66 10 -7.32 10 -8 10 C-8 9.34 -8 8.68 -8 8 C-8.66 8 -9.32 8 -10 8 C-10 7.34 -10 6.68 -10 6 C-9.01 6 -8.02 6 -7 6 C-7 5.34 -7 4.68 -7 4 C-6.01 4 -5.02 4 -4 4 C-4 3.34 -4 2.68 -4 2 C-2.68 2 -1.36 2 0 2 C0 1.34 0 0.68 0 0 Z " fill="#9B8B63" transform="translate(112,8)"/>
<path d="M0 0 C1.32 0.33 2.64 0.66 4 1 C3.34 2.65 2.68 4.3 2 6 C1.67 5.34 1.34 4.68 1 4 C0.34 4 -0.32 4 -1 4 C-1 4.66 -1 5.32 -1 6 C-3.97 6.66 -6.94 7.32 -10 8 C-10 7.34 -10 6.68 -10 6 C-8.71086513 5.32845067 -7.41859796 4.66291141 -6.125 4 C-5.40570313 3.62875 -4.68640625 3.2575 -3.9453125 2.875 C-2 2 -2 2 0 2 C0 1.34 0 0.68 0 0 Z " fill="#9A8969" transform="translate(152,336)"/>
<path d="M0 0 C1.65 0 3.3 0 5 0 C5 0.66 5 1.32 5 2 C6.32 2 7.64 2 9 2 C9.33 3.32 9.66 4.64 10 6 C10.66 6 11.32 6 12 6 C12 6.66 12 7.32 12 8 C11.01 8 10.02 8 9 8 C9 7.34 9 6.68 9 6 C7.02 5.34 5.04 4.68 3 4 C3 3.34 3 2.68 3 2 C2.01 2 1.02 2 0 2 C0 1.34 0 0.68 0 0 Z " fill="#858473" transform="translate(106,380)"/>
<path d="M0 0 C1.98 0.66 3.96 1.32 6 2 C6 2.66 6 3.32 6 4 C7.32 4 8.64 4 10 4 C10 4.66 10 5.32 10 6 C8.02 6 6.04 6 4 6 C4 6.66 4 7.32 4 8 C3.34 8 2.68 8 2 8 C1.34 5.36 0.68 2.72 0 0 Z " fill="#AA915C" transform="translate(80,324)"/>
<path d="M0 0 C0.721875 0.144375 1.44375 0.28875 2.1875 0.4375 C3.5796875 0.7159375 3.5796875 0.7159375 5 1 C10 2 10 2 15 8 C13.68 8 12.36 8 11 8 C11 7.34 11 6.68 11 6 C10.401875 5.855625 9.80375 5.71125 9.1875 5.5625 C7.43849596 5.1127561 5.71322977 4.57107659 4 4 C4 3.34 4 2.68 4 2 C2.68 1.67 1.36 1.34 0 1 C0 0.67 0 0.34 0 0 Z " fill="#8C836E" transform="translate(225,196)"/>
<path d="M0 0 C0.99 0 1.98 0 3 0 C3 0.66 3 1.32 3 2 C3.99 2 4.98 2 6 2 C6 2.66 6 3.32 6 4 C7.32 4 8.64 4 10 4 C10 4.66 10 5.32 10 6 C6.7 6 3.4 6 0 6 C0 5.34 0 4.68 0 4 C0.66 4 1.32 4 2 4 C2 3.34 2 2.68 2 2 C1.34 2 0.68 2 0 2 C0 1.34 0 0.68 0 0 Z " fill="#A88D5F" transform="translate(200,42)"/>
<path d="M0 0 C1.32 0.33 2.64 0.66 4 1 C2.515 3.475 2.515 3.475 1 6 C-1.64 6 -4.28 6 -7 6 C-7 5.34 -7 4.68 -7 4 C-5.68 4 -4.36 4 -3 4 C-3 3.34 -3 2.68 -3 2 C-2.01 2 -1.02 2 0 2 C0 1.34 0 0.68 0 0 Z " fill="#978965" transform="translate(138,344)"/>
<path d="M0 0 C0.99 0 1.98 0 3 0 C3 0.66 3 1.32 3 2 C4.65 2 6.3 2 8 2 C8 2.66 8 3.32 8 4 C8.66 4 9.32 4 10 4 C10 4.66 10 5.32 10 6 C10.99 6 11.98 6 13 6 C13 6.66 13 7.32 13 8 C11.35 8 9.7 8 8 8 C7.67 7.01 7.34 6.02 7 5 C4.03 4.505 4.03 4.505 1 4 C0.67 2.68 0.34 1.36 0 0 Z " fill="#757E71" transform="translate(66,316)"/>
<path d="M0 0 C0.99 0 1.98 0 3 0 C3 0.66 3 1.32 3 2 C3.66 2 4.32 2 5 2 C5 2.66 5 3.32 5 4 C5.99 4 6.98 4 8 4 C7.67 5.32 7.34 6.64 7 8 C5.68 8.33 4.36 8.66 3 9 C2.67 6.69 2.34 4.38 2 2 C1.34 2 0.68 2 0 2 C0 1.34 0 0.68 0 0 Z " fill="#B47C43" transform="translate(159,194)"/>
<path d="M0 0 C2.64 0 5.28 0 8 0 C8.66 1.98 9.32 3.96 10 6 C8.68 6 7.36 6 6 6 C6 5.34 6 4.68 6 4 C4.02 3.34 2.04 2.68 0 2 C0 1.34 0 0.68 0 0 Z " fill="#AC915C" transform="translate(82,366)"/>
<path d="M0 0 C0.99 0 1.98 0 3 0 C3 0.66 3 1.32 3 2 C4.32 2 5.64 2 7 2 C7 2.66 7 3.32 7 4 C8.32 4.33 9.64 4.66 11 5 C11 5.33 11 5.66 11 6 C7.7 6 4.4 6 1 6 C1.33 4.68 1.66 3.36 2 2 C1.34 2 0.68 2 0 2 C0 1.34 0 0.68 0 0 Z " fill="#AB8F5A" transform="translate(130,178)"/>
<path d="M0 0 C1.32 0 2.64 0 4 0 C4 0.66 4 1.32 4 2 C4.99 2.33 5.98 2.66 7 3 C5.68 3.33 4.36 3.66 3 4 C3 4.66 3 5.32 3 6 C2.01 6 1.02 6 0 6 C0 6.66 0 7.32 0 8 C-0.66 8 -1.32 8 -2 8 C-2 6.68 -2 5.36 -2 4 C-0.68 4 0.64 4 2 4 C1.34 3.67 0.68 3.34 0 3 C0 2.01 0 1.02 0 0 Z " fill="#A68D5B" transform="translate(58,76)"/>
<path d="M0 0 C1.32 0 2.64 0 4 0 C4 0.66 4 1.32 4 2 C5.32 2 6.64 2 8 2 C8 2.66 8 3.32 8 4 C8.99 4 9.98 4 11 4 C11 4.66 11 5.32 11 6 C9.35 6 7.7 6 6 6 C6 5.34 6 4.68 6 4 C4.35 4 2.7 4 1 4 C0.67 2.68 0.34 1.36 0 0 Z " fill="#988962" transform="translate(230,60)"/>
<path d="M0 0 C0.99 0 1.98 0 3 0 C3 1.32 3 2.64 3 4 C1.68 4 0.36 4 -1 4 C-1 4.66 -1 5.32 -1 6 C-2.98 6 -4.96 6 -7 6 C-7 5.34 -7 4.68 -7 4 C-4.35261084 2.5393715 -3.10551666 2 0 2 C0 1.34 0 0.68 0 0 Z " fill="#AF8E58" transform="translate(163,330)"/>
<path d="M0 0 C0.99 0 1.98 0 3 0 C3 0.66 3 1.32 3 2 C3.99 2 4.98 2 6 2 C6 2.66 6 3.32 6 4 C7.32 4 8.64 4 10 4 C10 4.66 10 5.32 10 6 C7.36 6 4.72 6 2 6 C0 3 0 3 0 0 Z " fill="#96805E" transform="translate(201,218)"/>
<path d="M0 0 C0.99 0 1.98 0 3 0 C3 0.66 3 1.32 3 2 C4.32 2 5.64 2 7 2 C7 2.66 7 3.32 7 4 C7.99 4 8.98 4 10 4 C10 4.66 10 5.32 10 6 C6.7 5.67 3.4 5.34 0 5 C0 3.35 0 1.7 0 0 Z " fill="#9E8964" transform="translate(148,188)"/>
<path d="M0 0 C2.97 0 5.94 0 9 0 C9.66 1.65 10.32 3.3 11 5 C6.87248551 4.39301257 3.6678852 2.96189209 0 1 C0 0.67 0 0.34 0 0 Z " fill="#DF8223" transform="translate(60,138)"/>
<path d="M0 0 C2.64 0 5.28 0 8 0 C8 0.66 8 1.32 8 2 C6.68 2 5.36 2 4 2 C4 2.66 4 3.32 4 4 C1.36 4 -1.28 4 -4 4 C-4 3.34 -4 2.68 -4 2 C-2.68 2 -1.36 2 0 2 C0 1.34 0 0.68 0 0 Z " fill="#978665" transform="translate(124,66)"/>
<path d="M0 0 C1.32 0.33 2.64 0.66 4 1 C3.01 1.33 2.02 1.66 1 2 C1.33 3.32 1.66 4.64 2 6 C1.34 6 0.68 6 0 6 C0 5.34 0 4.68 0 4 C-0.66 4 -1.32 4 -2 4 C-2 4.66 -2 5.32 -2 6 C-3.65 6 -5.3 6 -7 6 C-7 5.34 -7 4.68 -7 4 C-6.01 4 -5.02 4 -4 4 C-4 3.34 -4 2.68 -4 2 C-2.68 2 -1.36 2 0 2 C0 1.34 0 0.68 0 0 Z " fill="#978A64" transform="translate(98,16)"/>
<path d="M0 0 C3.62528568 -0.20140476 5.86501708 0.14223235 9 2 C9 2.66 9 3.32 9 4 C7.68 4 6.36 4 5 4 C5 4.66 5 5.32 5 6 C4.34 6 3.68 6 3 6 C3 5.34 3 4.68 3 4 C2.34 4 1.68 4 1 4 C0.67 2.68 0.34 1.36 0 0 Z " fill="#C6984D" transform="translate(145,12)"/>
<path d="M0 0 C1.98 0 3.96 0 6 0 C6 0.66 6 1.32 6 2 C6.99 2 7.98 2 9 2 C9 2.66 9 3.32 9 4 C10.32 4 11.64 4 13 4 C13 4.66 13 5.32 13 6 C10.69 6 8.38 6 6 6 C5.67 4.68 5.34 3.36 5 2 C3.35 2 1.7 2 0 2 C0 1.34 0 0.68 0 0 Z " fill="#657779" transform="translate(125,0)"/>
<path d="M0 0 C3.82097239 0.53069061 6.06171403 1.49701566 9 4 C8.67 4.99 8.34 5.98 8 7 C7.67 6.34 7.34 5.68 7 5 C5.68 4.67 4.36 4.34 3 4 C3 4.66 3 5.32 3 6 C2.01 5.67 1.02 5.34 0 5 C0 3.35 0 1.7 0 0 Z " fill="#DB8324" transform="translate(71,185)"/>
<path d="M0 0 C1.32 0 2.64 0 4 0 C4 0.66 4 1.32 4 2 C4.99 2 5.98 2 7 2 C7 2.66 7 3.32 7 4 C8.32 4.33 9.64 4.66 11 5 C8.50935112 5.68707555 6.62113708 6 4 6 C4 5.34 4 4.68 4 4 C3.34 4 2.68 4 2 4 C2 3.34 2 2.68 2 2 C1.34 2 0.68 2 0 2 C0 1.34 0 0.68 0 0 Z " fill="#978466" transform="translate(182,32)"/>
<path d="M0 0 C0.99 0 1.98 0 3 0 C3 0.66 3 1.32 3 2 C3.66 2 4.32 2 5 2 C5 1.34 5 0.68 5 0 C6.65 0 8.3 0 10 0 C10 0.66 10 1.32 10 2 C9.01 2 8.02 2 7 2 C7 2.66 7 3.32 7 4 C5.68 4 4.36 4 3 4 C3 4.66 3 5.32 3 6 C2.01 5.67 1.02 5.34 0 5 C0.66 5 1.32 5 2 5 C2 4.01 2 3.02 2 2 C1.01 1.67 0.02 1.34 -1 1 C-0.67 0.67 -0.34 0.34 0 0 Z " fill="#A58D56" transform="translate(171,362)"/>
<path d="M0 0 C2.31 0 4.62 0 7 0 C7 0.66 7 1.32 7 2 C5.68 2 4.36 2 3 2 C3 2.66 3 3.32 3 4 C1.68 4 0.36 4 -1 4 C-1 4.66 -1 5.32 -1 6 C-1.66 6 -2.32 6 -3 6 C-3 4.68 -3 3.36 -3 2 C-2.01 2 -1.02 2 0 2 C0 1.34 0 0.68 0 0 Z " fill="#A78A5F" transform="translate(237,326)"/>
<path d="M0 0 C1.32 0 2.64 0 4 0 C4 0.66 4 1.32 4 2 C4.99 2 5.98 2 7 2 C7 2.66 7 3.32 7 4 C8.32 4 9.64 4 11 4 C11 4.66 11 5.32 11 6 C9.35 6 7.7 6 6 6 C5.34 5.34 4.68 4.68 4 4 C3.01 4 2.02 4 1 4 C0.67 2.68 0.34 1.36 0 0 Z " fill="#A58B61" transform="translate(37,300)"/>
<path d="M0 0 C1.65 0.33 3.3 0.66 5 1 C5 1.99 5 2.98 5 4 C7.97 4.495 7.97 4.495 11 5 C11 5.66 11 6.32 11 7 C9.68 7 8.36 7 7 7 C7 6.34 7 5.68 7 5 C5.35 5 3.7 5 2 5 C1.01 3.68 0.02 2.36 -1 1 C-0.67 0.67 -0.34 0.34 0 0 Z " fill="#E8902C" transform="translate(77,141)"/>
<path d="M0 0 C0.66 0.33 1.32 0.66 2 1 C1.67 1.99 1.34 2.98 1 4 C0.34 4 -0.32 4 -1 4 C-1.33 5.32 -1.66 6.64 -2 8 C-2 7.34 -2 6.68 -2 6 C-3.98 6 -5.96 6 -8 6 C-7.67 5.34 -7.34 4.68 -7 4 C-6.01 4 -5.02 4 -4 4 C-4 3.34 -4 2.68 -4 2 C-2.68 1.34 -1.36 0.68 0 0 Z " fill="#AB8F5A" transform="translate(40,50)"/>
<path d="M0 0 C1.32 0 2.64 0 4 0 C4 0.66 4 1.32 4 2 C4.99 2 5.98 2 7 2 C7.33 3.32 7.66 4.64 8 6 C7.01 6 6.02 6 5 6 C5 5.34 5 4.68 5 4 C3.35 4 1.7 4 0 4 C0 2.68 0 1.36 0 0 Z " fill="#AC9258" transform="translate(28,198)"/>
<path d="M0 0 C1.65 0 3.3 0 5 0 C5 0.66 5 1.32 5 2 C6.32 2 7.64 2 9 2 C9.33 3.32 9.66 4.64 10 6 C9.01 6 8.02 6 7 6 C7 5.34 7 4.68 7 4 C5.68 4 4.36 4 3 4 C3 3.34 3 2.68 3 2 C2.01 2 1.02 2 0 2 C0 1.34 0 0.68 0 0 Z " fill="#89816D" transform="translate(96,198)"/>
<path d="M0 0 C1.32 0 2.64 0 4 0 C4 0.66 4 1.32 4 2 C5.32 2 6.64 2 8 2 C8 2.66 8 3.32 8 4 C6.68 4 5.36 4 4 4 C4 4.66 4 5.32 4 6 C3.34 6 2.68 6 2 6 C2 5.34 2 4.68 2 4 C1.34 4 0.68 4 0 4 C0 2.68 0 1.36 0 0 Z " fill="#B19055" transform="translate(10,188)"/>
<path d="M0 0 C1.32 0.33 2.64 0.66 4 1 C0 5 0 5 -7 6 C-7 5.34 -7 4.68 -7 4 C-6.01 4 -5.02 4 -4 4 C-4 3.34 -4 2.68 -4 2 C-2.68 2 -1.36 2 0 2 C0 1.34 0 0.68 0 0 Z " fill="#938466" transform="translate(86,88)"/>
<path d="M0 0 C1.32 0.33 2.64 0.66 4 1 C3.67 1.66 3.34 2.32 3 3 C2.01 3 1.02 3 0 3 C-0.66 4.32 -1.32 5.64 -2 7 C-3.32 6.67 -4.64 6.34 -6 6 C-6 5.34 -6 4.68 -6 4 C-5.01 4 -4.02 4 -3 4 C-3 3.34 -3 2.68 -3 2 C-2.01 2 -1.02 2 0 2 C0 1.34 0 0.68 0 0 Z " fill="#938667" transform="translate(87,22)"/>
<path d="M0 0 C0.33 1.65 0.66 3.3 1 5 C-1.64 4.67 -4.28 4.34 -7 4 C-7 3.34 -7 2.68 -7 2 C-4 0 -4 0 0 0 Z " fill="#D49C48" transform="translate(93,330)"/>
<path d="M0 0 C5.94 0.99 5.94 0.99 12 2 C12 2.99 12 3.98 12 5 C9.03 4.67 6.06 4.34 3 4 C3 3.34 3 2.68 3 2 C2.01 2 1.02 2 0 2 C0 1.34 0 0.68 0 0 Z " fill="#AB8C58" transform="translate(208,262)"/>
<path d="M0 0 C3.3 0.33 6.6 0.66 10 1 C10.33 1.99 10.66 2.98 11 4 C9.35 4.33 7.7 4.66 6 5 C6 4.34 6 3.68 6 3 C5.01 3 4.02 3 3 3 C3 2.34 3 1.68 3 1 C2.01 0.67 1.02 0.34 0 0 Z " fill="#AE8B56" transform="translate(6,147)"/>
<path d="M0 0 C0.66 0 1.32 0 2 0 C2 1.32 2 2.64 2 4 C0.68 5.32 -0.64 6.64 -2 8 C-3.65 8 -5.3 8 -7 8 C-7 7.34 -7 6.68 -7 6 C-6.01 6 -5.02 6 -4 6 C-4 5.34 -4 4.68 -4 4 C-3.01 4 -2.02 4 -1 4 C-0.67 2.68 -0.34 1.36 0 0 Z " fill="#64797A" transform="translate(100,78)"/>
<path d="M0 0 C1.32 0.33 2.64 0.66 4 1 C3.67 1.99 3.34 2.98 3 4 C1.68 4 0.36 4 -1 4 C-1 4.66 -1 5.32 -1 6 C-2.65 6 -4.3 6 -6 6 C-6 5.34 -6 4.68 -6 4 C-4.68 4 -3.36 4 -2 4 C-2 3.34 -2 2.68 -2 2 C-1.34 2 -0.68 2 0 2 C0 1.34 0 0.68 0 0 Z " fill="#7F7C6C" transform="translate(121,2)"/>
<path d="M0 0 C3.3 0 6.6 0 10 0 C10 0.66 10 1.32 10 2 C9.01 2 8.02 2 7 2 C7 2.66 7 3.32 7 4 C6.01 4 5.02 4 4 4 C4 3.34 4 2.68 4 2 C2.68 2 1.36 2 0 2 C0 1.34 0 0.68 0 0 Z " fill="#B59253" transform="translate(201,258)"/>
<path d="M0 0 C1.65 0 3.3 0 5 0 C5 0.66 5 1.32 5 2 C6.32 2 7.64 2 9 2 C9 3.32 9 4.64 9 6 C8.34 6 7.68 6 7 6 C7 5.34 7 4.68 7 4 C5.68 4 4.36 4 3 4 C3 3.34 3 2.68 3 2 C2.01 2 1.02 2 0 2 C0 1.34 0 0.68 0 0 Z " fill="#A68663" transform="translate(121,212)"/>
<path d="M0 0 C2.64 0 5.28 0 8 0 C8 0.66 8 1.32 8 2 C6.68 2 5.36 2 4 2 C4 2.66 4 3.32 4 4 C1.03 3.505 1.03 3.505 -2 3 C-1.34 2.67 -0.68 2.34 0 2 C0 1.34 0 0.68 0 0 Z " fill="#EDA83C" transform="translate(142,46)"/>
<path d="M0 0 C1.98 0 3.96 0 6 0 C6 0.66 6 1.32 6 2 C5.01 2 4.02 2 3 2 C3 2.66 3 3.32 3 4 C2.01 4 1.02 4 0 4 C0 4.66 0 5.32 0 6 C-0.99 6 -1.98 6 -3 6 C-3 5.34 -3 4.68 -3 4 C-2.34 4 -1.68 4 -1 4 C-0.67 2.68 -0.34 1.36 0 0 Z " fill="#7E8473" transform="translate(137,384)"/>
<path d="M0 0 C4.455 0.99 4.455 0.99 9 2 C9.33 3.32 9.66 4.64 10 6 C9.01 6 8.02 6 7 6 C7 5.34 7 4.68 7 4 C5.68 4 4.36 4 3 4 C3 3.34 3 2.68 3 2 C2.01 2 1.02 2 0 2 C0 1.34 0 0.68 0 0 Z " fill="#7E7F77" transform="translate(64,356)"/>
<path d="M0 0 C1.65 0 3.3 0 5 0 C5.99 0.99 6.98 1.98 8 3 C8 3.66 8 4.32 8 5 C8.66 5.33 9.32 5.66 10 6 C8.68 6 7.36 6 6 6 C6 5.34 6 4.68 6 4 C4.02 3.34 2.04 2.68 0 2 C0 1.34 0 0.68 0 0 Z " fill="#908467" transform="translate(44,168)"/>
<path d="M0 0 C2.64 0.66 5.28 1.32 8 2 C8.66 3.32 9.32 4.64 10 6 C9.01 6 8.02 6 7 6 C7 5.34 7 4.68 7 4 C5.68 4 4.36 4 3 4 C3 3.34 3 2.68 3 2 C2.01 2 1.02 2 0 2 C0 1.34 0 0.68 0 0 Z " fill="#817E6E" transform="translate(26,158)"/>
<path d="M0 0 C0.33 0 0.66 0 1 0 C1 1.65 1 3.3 1 5 C2.98 5 4.96 5 7 5 C7 5.66 7 6.32 7 7 C3.7 7 0.4 7 -3 7 C-3 6.34 -3 5.68 -3 5 C-2.01 5 -1.02 5 0 5 C0 3.35 0 1.7 0 0 Z " fill="#D58837" transform="translate(59,131)"/>
<path d="M0 0 C2.64 0 5.28 0 8 0 C8.66 1.32 9.32 2.64 10 4 C8.35 4 6.7 4 5 4 C5 3.34 5 2.68 5 2 C3.35 2 1.7 2 0 2 C0 1.34 0 0.68 0 0 Z " fill="#E39E44" transform="translate(90,86)"/>
<path d="M0 0 C0.99 0 1.98 0 3 0 C3 0.66 3 1.32 3 2 C4.65 2 6.3 2 8 2 C8 2.66 8 3.32 8 4 C8.66 4 9.32 4 10 4 C10 4.66 10 5.32 10 6 C5.545 5.01 5.545 5.01 1 4 C0.67 2.68 0.34 1.36 0 0 Z " fill="#80836B" transform="translate(241,66)"/>
<path d="M0 0 C4.455 0.99 4.455 0.99 9 2 C9.33 3.32 9.66 4.64 10 6 C9.01 6 8.02 6 7 6 C7 5.34 7 4.68 7 4 C5.68 4 4.36 4 3 4 C3 3.34 3 2.68 3 2 C2.01 2 1.02 2 0 2 C0 1.34 0 0.68 0 0 Z " fill="#7D8074" transform="translate(160,60)"/>
<path d="M0 0 C2.64 0 5.28 0 8 0 C8 0.66 8 1.32 8 2 C7.34 2 6.68 2 6 2 C6 2.66 6 3.32 6 4 C4.35 4 2.7 4 1 4 C0.67 2.68 0.34 1.36 0 0 Z " fill="#D49F43" transform="translate(60,38)"/>
<path d="M0 0 C0.99 0 1.98 0 3 0 C3 0.66 3 1.32 3 2 C3.99 2 4.98 2 6 2 C6 2.66 6 3.32 6 4 C6.99 4 7.98 4 9 4 C9 4.66 9 5.32 9 6 C7.02 6 5.04 6 3 6 C2.67 4.68 2.34 3.36 2 2 C1.34 2 0.68 2 0 2 C0 1.34 0 0.68 0 0 Z " fill="#7C7E73" transform="translate(166,22)"/>
<path d="M0 0 C0.66 0 1.32 0 2 0 C2 0.66 2 1.32 2 2 C2.66 2 3.32 2 4 2 C4.33 2.99 4.66 3.98 5 5 C4.67 5.33 4.34 5.66 4 6 C2.02 6 0.04 6 -2 6 C-2 5.34 -2 4.68 -2 4 C-1.34 4 -0.68 4 0 4 C0 2.68 0 1.36 0 0 Z " fill="#DE9E3D" transform="translate(162,20)"/>
<path d="M0 0 C1.65 0 3.3 0 5 0 C5 0.66 5 1.32 5 2 C5.66 2 6.32 2 7 2 C7 2.66 7 3.32 7 4 C7.66 4 8.32 4 9 4 C9 4.66 9 5.32 9 6 C8.01 6 7.02 6 6 6 C6 5.34 6 4.68 6 4 C5.01 4 4.02 4 3 4 C3 3.34 3 2.68 3 2 C2.01 2 1.02 2 0 2 C0 1.34 0 0.68 0 0 Z " fill="#81856E" transform="translate(23,332)"/>
<path d="M0 0 C-0.33 0.99 -0.66 1.98 -1 3 C-2.32 3 -3.64 3 -5 3 C-5 2.34 -5 1.68 -5 1 C-5.99 1 -6.98 1 -8 1 C-8 0.34 -8 -0.32 -8 -1 C-4 -2 -4 -2 0 0 Z " fill="#A89257" transform="translate(17,325)"/>
<path d="M0 0 C1.32 0.33 2.64 0.66 4 1 C2.515 2.485 2.515 2.485 1 4 C0.01 4 -0.98 4 -2 4 C-2 4.66 -2 5.32 -2 6 C-3.32 6 -4.64 6 -6 6 C-6 5.34 -6 4.68 -6 4 C-5.01 4 -4.02 4 -3 4 C-3 3.34 -3 2.68 -3 2 C-2.01 2 -1.02 2 0 2 C0 1.34 0 0.68 0 0 Z " fill="#8D8665" transform="translate(204,306)"/>
<path d="M0 0 C0.66 0 1.32 0 2 0 C2.33 1.98 2.66 3.96 3 6 C3.66 6 4.32 6 5 6 C5 6.66 5 7.32 5 8 C3.35 8 1.7 8 0 8 C0 5.36 0 2.72 0 0 Z " fill="#D89D43" transform="translate(188,284)"/>
<path d="M0 0 C0 0.66 0 1.32 0 2 C-0.99 2 -1.98 2 -3 2 C-3 2.66 -3 3.32 -3 4 C-3.99 4 -4.98 4 -6 4 C-6 4.66 -6 5.32 -6 6 C-6.99 5.67 -7.98 5.34 -9 5 C-7.27746711 -0.16759866 -5.29500154 0 0 0 Z " fill="#8D8367" transform="translate(106,114)"/>
<path d="M0 0 C3.63 0 7.26 0 11 0 C11 0.66 11 1.32 11 2 C8.36 2 5.72 2 3 2 C2.67 2.66 2.34 3.32 2 4 C2 3.34 2 2.68 2 2 C1.34 2 0.68 2 0 2 C0 1.34 0 0.68 0 0 Z " fill="#DA9F3B" transform="translate(112,44)"/>
<path d="M0 0 C0.99 0.33 1.98 0.66 3 1 C0.70716496 4.43925256 -0.26468909 4.61011687 -4 6 C-4.99 6 -5.98 6 -7 6 C-7 5.34 -7 4.68 -7 4 C-6.01 4 -5.02 4 -4 4 C-4 3.34 -4 2.68 -4 2 C-2.68 2 -1.36 2 0 2 C0 1.34 0 0.68 0 0 Z " fill="#7E8273" transform="translate(194,312)"/>
<path d="M0 0 C4.455 0.99 4.455 0.99 9 2 C9 3.32 9 4.64 9 6 C8.34 6 7.68 6 7 6 C7 5.34 7 4.68 7 4 C5.68 4 4.36 4 3 4 C3 3.34 3 2.68 3 2 C2.01 2 1.02 2 0 2 C0 1.34 0 0.68 0 0 Z " fill="#91826A" transform="translate(143,50)"/>
<path d="M0 0 C4.455 0.99 4.455 0.99 9 2 C9 2.66 9 3.32 9 4 C7.68 4 6.36 4 5 4 C5 4.66 5 5.32 5 6 C4.34 6 3.68 6 3 6 C3 4.68 3 3.36 3 2 C2.01 1.67 1.02 1.34 0 1 C0 0.67 0 0.34 0 0 Z " fill="#7F8277" transform="translate(121,348)"/>
<path d="M0 0 C1.32 0.66 2.64 1.32 4 2 C4 2.66 4 3.32 4 4 C2.68 4 1.36 4 0 4 C0 4.66 0 5.32 0 6 C-0.99 6 -1.98 6 -3 6 C-3 5.34 -3 4.68 -3 4 C-2.34 4 -1.68 4 -1 4 C-0.67 2.68 -0.34 1.36 0 0 Z " fill="#9D8A61" transform="translate(247,320)"/>
<path d="M0 0 C1.32 0 2.64 0 4 0 C4 0.66 4 1.32 4 2 C4.99 2 5.98 2 7 2 C7 2.66 7 3.32 7 4 C4.69 4 2.38 4 0 4 C0 2.68 0 1.36 0 0 Z " fill="#AA8D5C" transform="translate(58,312)"/>
<path d="M0 0 C1.32 0 2.64 0 4 0 C4 0.66 4 1.32 4 2 C4.99 2 5.98 2 7 2 C7 2.66 7 3.32 7 4 C6.01 4 5.02 4 4 4 C4 4.66 4 5.32 4 6 C3.34 6 2.68 6 2 6 C2 4.68 2 3.36 2 2 C1.34 2 0.68 2 0 2 C0 1.34 0 0.68 0 0 Z " fill="#9E8965" transform="translate(214,226)"/>
<path d="M0 0 C2.31 0 4.62 0 7 0 C7 1.32 7 2.64 7 4 C5.68 4 4.36 4 3 4 C3 3.34 3 2.68 3 2 C2.01 2 1.02 2 0 2 C0 1.34 0 0.68 0 0 Z " fill="#978762" transform="translate(131,218)"/>
<path d="M0 0 C1.32 0 2.64 0 4 0 C4 0.99 4 1.98 4 3 C4.66 3 5.32 3 6 3 C6 5.97 6 8.94 6 12 C5.67 12 5.34 12 5 12 C5 9.36 5 6.72 5 4 C4.01 4 3.02 4 2 4 C2 3.34 2 2.68 2 2 C1.34 2 0.68 2 0 2 C0 1.34 0 0.68 0 0 Z " fill="#AE9264" transform="translate(191,102)"/>
<path d="M0 0 C0.99 0 1.98 0 3 0 C3 0.66 3 1.32 3 2 C3.66 2 4.32 2 5 2 C5.33 2.99 5.66 3.98 6 5 C4.35 5.33 2.7 5.66 1 6 C0.67 4.02 0.34 2.04 0 0 Z " fill="#C0954A" transform="translate(167,88)"/>
<path d="M0 0 C2.31 0 4.62 0 7 0 C7 0.66 7 1.32 7 2 C4.09399739 3.25664978 2.20395416 4 -1 4 C-0.67 2.68 -0.34 1.36 0 0 Z " fill="#878571" transform="translate(210,342)"/>
<path d="M0 0 C0.99 0 1.98 0 3 0 C3.33 1.32 3.66 2.64 4 4 C1.36 4 -1.28 4 -4 4 C-4 3.34 -4 2.68 -4 2 C-2.68 2 -1.36 2 0 2 C0 1.34 0 0.68 0 0 Z " fill="#A58D61" transform="translate(215,300)"/>
<path d="M0 0 C-0.33 0.99 -0.66 1.98 -1 3 C-2.98 3.33 -4.96 3.66 -7 4 C-7 3.01 -7 2.02 -7 1 C-4.53721199 -0.231394 -2.7204945 -0.07159196 0 0 Z " fill="#BC954E" transform="translate(29,154)"/>
<path d="M0 0 C2.31 0 4.62 0 7 0 C7 0.66 7 1.32 7 2 C6.01 2 5.02 2 4 2 C4 2.66 4 3.32 4 4 C2.68 3.67 1.36 3.34 0 3 C0 2.01 0 1.02 0 0 Z " fill="#A28A64" transform="translate(92,58)"/>
<path d="M0 0 C0.66 0 1.32 0 2 0 C2 0.66 2 1.32 2 2 C3.32 2 4.64 2 6 2 C6 2.66 6 3.32 6 4 C5.01 4 4.02 4 3 4 C3 4.66 3 5.32 3 6 C2.01 6 1.02 6 0 6 C0 4.02 0 2.04 0 0 Z " fill="#9F8965" transform="translate(182,356)"/>
<path d="M0 0 C4 0 4 0 6 1 C5.67 1.99 5.34 2.98 5 4 C3.02 4 1.04 4 -1 4 C-0.67 2.68 -0.34 1.36 0 0 Z " fill="#59727E" transform="translate(180,318)"/>
<path d="M0 0 C0.66 0 1.32 0 2 0 C2 0.66 2 1.32 2 2 C2.66 2 3.32 2 4 2 C4 2.66 4 3.32 4 4 C2.68 4 1.36 4 0 4 C0 4.66 0 5.32 0 6 C-0.99 6 -1.98 6 -3 6 C-3 5.34 -3 4.68 -3 4 C-2.34 4 -1.68 4 -1 4 C-0.67 2.68 -0.34 1.36 0 0 Z " fill="#AF8D5C" transform="translate(102,52)"/>
<path d="M0 0 C0.33 0.66 0.66 1.32 1 2 C1.66 2 2.32 2 3 2 C3 3.32 3 4.64 3 6 C2.01 6.33 1.02 6.66 0 7 C-0.33 6.67 -0.66 6.34 -1 6 C-1 1 -1 1 0 0 Z " fill="#EFA93B" transform="translate(125,2)"/>
<path d="M0 0 C1.98 0 3.96 0 6 0 C6 0.66 6 1.32 6 2 C5.01 2 4.02 2 3 2 C3 2.66 3 3.32 3 4 C1.68 3.67 0.36 3.34 -1 3 C-0.67 2.01 -0.34 1.02 0 0 Z " fill="#968A65" transform="translate(227,332)"/>
<path d="M0 0 C1.98 0 3.96 0 6 0 C6.33 1.32 6.66 2.64 7 4 C4.61435923 3.42415568 2.33317216 2.77772405 0 2 C0 1.34 0 0.68 0 0 Z " fill="#9B8B61" transform="translate(66,292)"/>
<path d="M0 0 C1.65 0 3.3 0 5 0 C5 1.32 5 2.64 5 4 C2.69 3.34 0.38 2.68 -2 2 C-1.34 1.34 -0.68 0.68 0 0 Z " fill="#E69226" transform="translate(83,196)"/>
<path d="M0 0 C1.32 0.33 2.64 0.66 4 1 C4 4.63 4 8.26 4 12 C3.67 12 3.34 12 3 12 C2.67 8.7 2.34 5.4 2 2 C1.34 2 0.68 2 0 2 C0 1.34 0 0.68 0 0 Z " fill="#456691" transform="translate(54,174)"/>
<path d="M0 0 C1.98 0 3.96 0 6 0 C6 1.32 6 2.64 6 4 C5.01 4 4.02 4 3 4 C3 3.34 3 2.68 3 2 C2.01 2 1.02 2 0 2 C0 1.34 0 0.68 0 0 Z " fill="#AB905B" transform="translate(96,374)"/>
<path d="M0 0 C0.99 0 1.98 0 3 0 C3 0.66 3 1.32 3 2 C4.32 2 5.64 2 7 2 C7 2.66 7 3.32 7 4 C5.02 4 3.04 4 1 4 C0.67 2.68 0.34 1.36 0 0 Z " fill="#958969" transform="translate(114,344)"/>
<path d="M0 0 C2 2 2 2 2 6 C2.66 6 3.32 6 4 6 C4 6.66 4 7.32 4 8 C2.68 8 1.36 8 0 8 C0 5.36 0 2.72 0 0 Z " fill="#F2A636" transform="translate(2,308)"/>
<path d="M0 0 C0.66 0 1.32 0 2 0 C2 1.98 2 3.96 2 6 C1.34 6 0.68 6 0 6 C0 5.34 0 4.68 0 4 C-0.99 3.67 -1.98 3.34 -3 3 C-2.01 2.01 -1.02 1.02 0 0 Z " fill="#F3AA35" transform="translate(86,298)"/>
<path d="M0 0 C0.99 0 1.98 0 3 0 C2.34 1.98 1.68 3.96 1 6 C0.01 6 -0.98 6 -2 6 C-1.34 4.02 -0.68 2.04 0 0 Z " fill="#BE9354" transform="translate(109,48)"/>
<path d="M0 0 C1.98 0.66 3.96 1.32 6 2 C6 2.66 6 3.32 6 4 C4.02 4 2.04 4 0 4 C0 2.68 0 1.36 0 0 Z " fill="#A88B5F" transform="translate(52,308)"/>
<path d="M0 0 C2.97 0.495 2.97 0.495 6 1 C6 1.99 6 2.98 6 4 C4.68 4 3.36 4 2 4 C1.34 2.68 0.68 1.36 0 0 Z " fill="#DB7F28" transform="translate(82,192)"/>
<path d="M0 0 C0.99 0 1.98 0 3 0 C3 0.66 3 1.32 3 2 C4.32 2 5.64 2 7 2 C7 2.66 7 3.32 7 4 C5.02 4 3.04 4 1 4 C0.67 2.68 0.34 1.36 0 0 Z " fill="#897F69" transform="translate(92,156)"/>
<path d="M0 0 C0.66 0 1.32 0 2 0 C2 0.66 2 1.32 2 2 C2.99 2 3.98 2 5 2 C5 2.66 5 3.32 5 4 C4.01 4 3.02 4 2 4 C2 4.66 2 5.32 2 6 C1.01 5.67 0.02 5.34 -1 5 C-0.34 5 0.32 5 1 5 C0.67 3.35 0.34 1.7 0 0 Z " fill="#A2865E" transform="translate(108,108)"/>
<path d="M0 0 C0.66 0 1.32 0 2 0 C2 0.66 2 1.32 2 2 C1.34 2 0.68 2 0 2 C0 1.34 0 0.68 0 0 Z " fill="#00559F" transform="translate(210,298)"/>
</svg>
